<svg width="1097" height="134" viewBox="0 0 1097 134" fill="none" xmlns="http://www.w3.org/2000/svg">
<path d="M60.7311 1.57907C61.2573 1.17691 61.7194 0.535158 62.4039 0.445312C65.5528 2.28928 68.231 4.81776 70.7124 7.47033C69.0011 10.2427 66.6951 12.5701 64.3677 14.812C63.9099 15.1842 63.3409 15.8901 62.7034 15.4665C61.3417 14.6481 60.0534 13.7134 58.8529 12.6728C57.3255 11.3551 55.6997 10.1058 54.5146 8.43724C56.226 5.8574 58.4807 3.71824 60.7311 1.57907ZM64.111 6.19967C62.9593 7.37465 61.7162 8.4562 60.3931 9.43409C60.017 8.61348 59.9208 7.69207 60.1193 6.81148L60.9322 7.0639C60.6883 7.40617 60.1706 7.66286 60.2305 8.13775C60.7225 8.31744 60.9578 7.67569 61.3044 7.44466L61.8777 7.7741L62.2285 7.26925C61.3728 6.67884 60.4787 6.02426 59.4133 5.83602C59.1948 7.27584 59.2837 8.74562 59.6743 10.1486C59.7642 10.5293 60.2476 10.2641 60.4487 10.1486C61.9632 9.04049 63.1227 7.5174 64.6843 6.46493C65.0638 7.30689 65.1453 8.253 64.9153 9.14745C64.424 8.8905 63.9483 8.60478 63.4906 8.29178C63.2254 8.03936 63.0157 8.43296 62.8274 8.56559C63.6648 9.24322 64.6292 9.74654 65.664 10.0459C65.909 8.50104 65.7978 6.92062 65.3389 5.42529C64.8799 5.59875 64.4618 5.86533 64.111 6.20823V6.19967Z" fill="white" fill-opacity="0.3" style="fill:white;fill-opacity:0.3;"/>
<path d="M9.10011 3.71795C9.89588 3.0762 10.9056 2.78099 11.8553 2.43445C12.8779 3.87197 14.0587 5.19825 15.0299 6.67428C13.9261 7.39732 12.9763 8.53108 12.8907 9.90015C12.8862 10.2661 12.9803 10.6265 13.1633 10.9434C13.3462 11.2604 13.6112 11.5222 13.9303 11.7013C15.6673 12.8094 17.7423 13.1602 19.7104 13.6608C22.5341 14.3753 25.4433 14.7732 28.2114 15.7016C28.1045 19.4622 27.8606 23.2186 27.8178 26.9835C27.5825 31.6341 27.698 36.2932 27.4713 40.9395C24.7502 41.0293 22.0292 41.2133 19.3039 41.2304C18.8248 39.6902 18.5124 38.1072 18.0974 36.5499C16.691 35.9655 15.2458 35.4795 13.772 35.0953C13.4341 35.1338 13.3656 35.5488 13.1816 35.7712C12.2276 37.4569 11.3334 39.1939 10.3066 40.8154C10.0713 41.2432 9.5151 41.0507 9.13005 41.102C6.92242 41.055 4.71481 41.1363 2.50719 41.1363C1.80982 41.1662 1.34348 40.563 0.830078 40.1908C3.94898 33.4182 7.03367 26.6242 9.84882 19.7189C10.0542 19.1884 10.2766 18.6023 10.0884 18.0333C9.78892 17.0407 8.9033 16.4075 8.10325 15.8256C6.5602 14.7732 5.02856 13.7007 3.50832 12.6083C4.21425 11.0981 4.75331 9.48514 5.67316 8.08613C6.34058 7.95778 6.74274 8.67227 7.19624 9.03165C7.13278 8.06278 7.26903 7.09119 7.59653 6.17714C7.92402 5.2631 8.4358 4.42606 9.10011 3.71795ZM16.3733 22.7694C15.8855 24.0828 15.3935 25.3963 14.94 26.7226C14.863 27.0691 14.6277 27.5782 15.017 27.8093C16.2183 28.2863 17.4597 28.6557 18.7264 28.9131C19.0558 28.6564 19.5136 28.5066 19.7318 28.143C19.8521 26.4134 19.8435 24.6773 19.7061 22.9491C19.6462 22.6453 19.6847 22.179 19.2783 22.0934C18.6121 21.8301 17.9025 21.6937 17.1862 21.6912C16.7284 21.811 16.5829 22.3758 16.3947 22.7694H16.3733Z" fill="white" fill-opacity="0.3" style="fill:white;fill-opacity:0.3;"/>
<path d="M85.2032 8.19246C86.183 7.7506 87.2132 7.43021 88.2708 7.2384C88.7285 8.62886 88.6729 10.1134 88.8483 11.551C89.004 12.5245 89.0841 13.5086 89.0879 14.4945C88.3135 15.1191 87.3766 15.5555 86.6878 16.2657C85.4684 17.3481 84.6556 18.7728 83.7828 20.1162C82.5335 19.6883 81.3741 19.0038 80.0863 18.6658C79.7954 19.5215 79.5258 20.4756 79.8767 21.3569C80.2047 22.1993 80.794 22.9145 81.558 23.3977C82.4907 22.7431 83.1581 21.8061 84.0138 21.0745C84.6684 21.1344 85.216 21.5665 85.815 21.8061C87.4707 22.6318 89.3403 22.726 91.133 23.034C90.9832 24.4031 90.8549 25.7764 90.6367 27.1369C90.6067 27.5391 90.1618 27.6118 89.8708 27.7701C88.0269 28.4974 86.1658 29.1948 84.3347 29.9521C84.5315 30.4826 84.7297 31.0117 84.9294 31.5394C89.0109 31.672 93.0882 31.9244 97.1697 31.8089C97.6916 32.4078 98.834 32.9597 98.4275 33.901C97.8713 35.5738 97.144 37.1867 96.4766 38.8211C96.3867 39.1377 96.1557 39.4585 96.2456 39.7965C97.1312 40.4083 98.128 40.8405 98.9794 41.5079V41.6619C98.7869 42.1154 98.6072 42.6673 98.0767 42.8128C95.9375 43.5743 93.7984 44.2546 91.6977 45.0332C90.9365 45.3259 90.1392 45.5145 89.3275 45.5937C89.1478 43.6042 89.4088 41.6148 89.4943 39.6254C85.5241 39.6639 81.5794 40.1773 77.6134 40.3441C77.1856 40.3441 76.5567 40.3441 76.4925 39.8094C75.671 37.1397 75.1705 34.3844 74.4432 31.6805C73.0099 26.2855 71.8291 20.8264 70.5927 15.3843C70.542 15.128 70.5205 14.8668 70.5285 14.6057C71.4398 13.8442 72.5864 13.4548 73.6517 12.9714C77.5022 11.3798 81.3099 9.6856 85.2032 8.19246Z" fill="white" fill-opacity="0.3" style="fill:white;fill-opacity:0.3;"/>
<path d="M43.0185 22.6971C45.8337 20.5194 48.5333 18.192 51.3313 15.9886C53.3208 17.8882 55.4984 19.6424 57.1413 21.8671C54.6556 23.9207 52.1613 25.9657 49.6842 28.0322C50.0497 29.0652 50.6298 30.0092 51.3864 30.8019C52.143 31.5946 53.0589 32.2181 54.0738 32.6314C55.5455 33.1833 57.0172 32.426 58.2879 31.7372C58.8853 33.5083 59.3557 35.3198 59.6955 37.1578C57.9243 38.5911 56.0375 39.9003 54.1337 41.1624C53.9347 41.3385 53.6796 41.4381 53.414 41.4436C53.1483 41.4491 52.8894 41.36 52.6833 41.1923C50.1363 39.5124 47.6762 37.7126 45.3032 35.7931C44.7385 35.325 44.1424 34.8962 43.5191 34.5096C40.905 36.9482 38.291 39.3869 35.6042 41.7399C35.2405 41.7399 35.0309 41.3763 34.7485 41.1838C32.829 39.4182 30.9223 37.637 29.0284 35.8401C28.6433 35.5877 29.1182 35.2112 29.2765 34.9845C31.1847 32.9138 33.1056 30.8473 34.9796 28.7509C33.2468 26.1839 31.6852 23.4929 30.0851 20.836C29.8455 20.5451 30.3119 20.3782 30.483 20.2242C32.5623 18.8722 34.6929 17.6016 36.8492 16.3737C38.9285 18.4744 40.8708 20.6863 43.0185 22.6971Z" fill="white" fill-opacity="0.3" style="fill:white;fill-opacity:0.3;"/>
<path d="M57.8389 17.4613C61.5011 16.8623 65.1677 16.3062 68.8513 15.8569C69.2791 18.7619 69.2535 21.714 69.4888 24.6361C69.7341 29.4592 70.0093 34.2823 70.3145 39.1054C70.3573 39.5333 70.3616 40.1621 69.7498 39.9953C67.0459 39.5675 64.3377 39.1396 61.668 38.5407C61.1289 38.4679 61.0819 37.839 61.0006 37.4155C60.6583 35.1822 60.0765 32.9917 59.7513 30.7584C59.6443 30.1551 60.0807 29.6631 60.3032 29.1454C61.5076 26.9195 61.8138 24.3169 61.1589 21.8723C60.2476 21.7781 59.3234 21.8295 58.4207 21.6712C58.0508 20.2979 57.8553 18.8835 57.8389 17.4613Z" fill="white" fill-opacity="0.3" style="fill:white;fill-opacity:0.3;"/>
<path d="M54.2753 24.8624C54.3951 24.5843 54.6689 24.0666 55.0454 24.3319C55.9011 25.2517 55.9481 26.6208 55.9652 27.8102C55.901 28.6188 55.9652 29.7183 55.0839 30.129C54.5581 29.3702 54.212 28.5015 54.0719 27.589C53.9318 26.6765 54.0013 25.744 54.2753 24.8624Z" fill="white" fill-opacity="0.3" style="fill:white;fill-opacity:0.3;"/>
<path d="M48.7217 44.4754H50.1806C50.8181 45.4252 51.4171 46.4049 52.0503 47.359C52.0503 46.3963 52.0503 45.4294 52.1187 44.4668H53.6204C53.6204 46.2252 53.6503 47.9836 53.6675 49.7463H52.1658C51.5925 48.9206 51.0106 48.1077 50.4288 47.2862C50.4288 48.1077 50.4074 48.9334 50.3988 49.7591H48.6147C48.6704 47.9921 48.6918 46.2338 48.7217 44.4754Z" fill="white" fill-opacity="0.3" style="fill:white;fill-opacity:0.3;"/>
<path d="M28.9345 44.474H30.8426C30.8426 46.2324 30.8213 47.9908 30.8127 49.7492H28.896C28.9046 47.9951 28.9088 46.2367 28.9345 44.474Z" fill="white" fill-opacity="0.3" style="fill:white;fill-opacity:0.3;"/>
<path d="M32.6437 44.4754H34.1325C34.7572 45.438 35.3604 46.4135 35.9893 47.3675C35.9893 46.4049 36.0107 45.4337 36.0236 44.4668H37.5424C37.568 46.2252 37.5424 47.9836 37.5851 49.742H36.1134C35.5358 48.9377 34.9925 48.1077 34.3593 47.3504C34.3336 48.1462 34.3293 48.9462 34.3251 49.7463H32.5581C32.5923 47.9922 32.6137 46.2338 32.6437 44.4754Z" fill="white" fill-opacity="0.3" style="fill:white;fill-opacity:0.3;"/>
<path d="M39.3606 44.474H43.2796C43.2796 44.9532 43.2796 45.4323 43.2796 45.9115C42.5437 45.9115 41.8078 45.9115 41.0762 45.9115C41.042 46.1554 41.0078 46.3993 40.9735 46.6474L42.21 46.6773L42.2998 47.6357H41.0762C41.0762 48.3402 41.0862 49.0461 41.1062 49.7534H39.2622C39.275 47.9908 39.3007 46.2324 39.3606 44.474Z" fill="white" fill-opacity="0.3" style="fill:white;fill-opacity:0.3;"/>
<path d="M44.9994 44.5295C45.6203 44.4644 46.2454 44.4473 46.869 44.4781C46.869 46.2365 46.869 47.9949 46.8433 49.7533H44.9224C44.9651 48.012 44.8625 46.2665 44.9994 44.5295Z" fill="white" fill-opacity="0.3" style="fill:white;fill-opacity:0.3;"/>
<path d="M55.4345 44.474H57.3427C57.3427 46.2324 57.3213 47.9908 57.317 49.7492H55.396C55.4131 47.9951 55.4174 46.2367 55.4345 44.474Z" fill="white" fill-opacity="0.3" style="fill:white;fill-opacity:0.3;"/>
<path d="M59.135 44.4562C60.7865 44.4562 62.4379 44.4562 64.0893 44.4562C64.1193 45.0765 64.1278 45.7012 64.0893 46.3258H62.4336C62.4336 47.4681 62.4336 48.6105 62.4336 49.7485H60.4998C60.5626 48.6076 60.6182 47.4667 60.6667 46.3258L59.1265 46.3472L59.135 44.4562Z" fill="white" fill-opacity="0.3" style="fill:white;fill-opacity:0.3;"/>
<path d="M64.8726 44.4562H66.862C67.2898 44.9696 67.7176 45.4915 68.1027 46.0178C68.368 45.4958 68.6332 44.9739 68.9113 44.4605C69.583 44.4605 70.2547 44.4605 70.9307 44.4605C70.095 46.2288 69.2536 47.9944 68.4065 49.757H66.2673C66.6224 49.0597 66.9732 48.3666 67.3369 47.6735C66.5283 46.5911 65.6983 45.5258 64.8726 44.4562Z" fill="white" fill-opacity="0.3" style="fill:white;fill-opacity:0.3;"/>
<path d="M244.376 7.24123H246.853V6.6406L246.215 6.00244H243.137L242.499 6.6406V11.5959L243.137 12.1965H246.215L246.853 11.5959V10.9952H244.376V9.75642H246.853V8.51759H244.376V7.24123Z" fill="white" fill-opacity="0.3" style="fill:white;fill-opacity:0.3;"/>
<path d="M246.44 0.447754H242.949V3.93898H246.44V0.447754Z" fill="white" fill-opacity="0.3" style="fill:white;fill-opacity:0.3;"/>
<path d="M239.646 6.00091V8.47853H237.806V6.00091H236.567L235.929 6.63907V11.5944L236.567 12.195H237.806V9.71736H239.646V12.195H240.884L241.485 11.5944V6.60154L240.884 5.96338H239.646V6.00091Z" fill="white" fill-opacity="0.3" style="fill:white;fill-opacity:0.3;"/>
<path d="M229.96 6.00244L229.322 6.6406V7.24123H231.162V11.5583L231.8 12.159H232.401L233.001 11.5583V7.24123H234.841V6.6406L234.24 6.00244H229.96Z" fill="white" fill-opacity="0.3" style="fill:white;fill-opacity:0.3;"/>
<path d="M162.651 14.3008L160.174 16.7784V26.6889L162.651 29.1665H172.562V34.1218H167.607V31.6442H160.174V36.5994L162.651 39.0771H177.48L179.957 36.5994V26.6889L177.48 24.2113H167.607V19.256H172.562V21.7337H179.995V16.7784L177.517 14.3008H162.651Z" fill="white" fill-opacity="0.3" style="fill:white;fill-opacity:0.3;"/>
<path d="M229.435 14.3008V39.0395H246.74L249.218 36.5619V16.7784L246.74 14.3008H229.435ZM236.867 19.256H241.823V34.0842H236.867V19.256Z" fill="white" fill-opacity="0.3" style="fill:white;fill-opacity:0.3;"/>
<path d="M251.696 14.3027V39.0414H269.002L271.479 36.5638V29.1309L269.002 26.6533L271.479 24.1757V16.7428L269.002 14.2651L251.696 14.3027ZM259.129 29.1684H264.084V34.1237H259.129V29.1684ZM259.129 24.2132V19.2579H264.084V24.2132H259.129Z" fill="white" fill-opacity="0.3" style="fill:white;fill-opacity:0.3;"/>
<path d="M276.435 14.3008L273.957 16.7784V36.5619L276.435 39.0395H291.263L293.741 36.5619V16.7784L291.263 14.3008H276.435ZM281.39 19.256H286.345V34.0842H281.39V19.256Z" fill="white" fill-opacity="0.3" style="fill:white;fill-opacity:0.3;"/>
<path d="M320.693 21.9981L316.021 26.6699L320.693 31.3418L325.365 26.6699L320.693 21.9981Z" fill="white" fill-opacity="0.3" style="fill:white;fill-opacity:0.3;"/>
<path d="M192.04 40.413L187.368 45.0848L192.04 49.7567L196.712 45.0849L192.04 40.413Z" fill="white" fill-opacity="0.3" style="fill:white;fill-opacity:0.3;"/>
<path d="M308.606 14.3008V21.7337L306.129 24.2113L303.651 21.7337V14.3008H298.696L296.218 16.7784V24.2113L298.696 26.6889L296.218 29.1665V36.5994L298.696 39.0771H303.651V31.6442L306.129 29.1665L308.606 31.6442V39.0771H313.562L316.039 36.5994V29.1665L313.562 26.6889L316.039 24.2113V16.7784L313.562 14.3008H308.606Z" fill="white" fill-opacity="0.3" style="fill:white;fill-opacity:0.3;"/>
<path d="M219.524 14.3008V21.7337L212.092 14.3008H207.136L204.659 16.7784V36.5619L207.136 39.0395H212.092V24.2113L219.524 31.6442V39.0771H224.48L226.957 36.5994V16.8159L224.48 14.3383H219.524V14.3008Z" fill="white" fill-opacity="0.3" style="fill:white;fill-opacity:0.3;"/>
<path d="M199.741 14.3755H184.913L182.435 16.8532V36.6366L184.913 39.1142H189.868V29.2037H194.823V39.1142H199.778L202.256 36.6366V16.8532L199.741 14.3755ZM192.346 25.1494L189.192 21.9961L192.346 18.8427L195.499 21.9961L192.346 25.1494Z" fill="white" fill-opacity="0.3" style="fill:white;fill-opacity:0.3;"/>
<path d="M446.461 1.57907C446.987 1.17691 447.449 0.535158 448.134 0.445312C451.282 2.28928 453.961 4.81776 456.442 7.47033C454.731 10.2427 452.425 12.5701 450.097 14.812C449.64 15.1842 449.071 15.8901 448.433 15.4665C447.071 14.6481 445.783 13.7134 444.583 12.6728C443.055 11.3551 441.429 10.1058 440.244 8.43724C441.956 5.8574 444.21 3.71824 446.461 1.57907ZM449.841 6.19967C448.689 7.37465 447.446 8.4562 446.123 9.43409C445.747 8.61348 445.651 7.69207 445.849 6.81148L446.662 7.0639C446.418 7.40617 445.9 7.66286 445.96 8.13775C446.452 8.31744 446.688 7.67569 447.034 7.44466L447.607 7.7741L447.958 7.26925C447.103 6.67884 446.208 6.02426 445.143 5.83602C444.925 7.27584 445.013 8.74562 445.404 10.1486C445.494 10.5293 445.977 10.2641 446.178 10.1486C447.693 9.04049 448.852 7.5174 450.414 6.46493C450.794 7.30689 450.875 8.253 450.645 9.14745C450.154 8.8905 449.678 8.60478 449.22 8.29178C448.955 8.03936 448.745 8.43296 448.557 8.56559C449.395 9.24322 450.359 9.74654 451.394 10.0459C451.639 8.50104 451.528 6.92062 451.069 5.42529C450.61 5.59875 450.192 5.86533 449.841 6.20823V6.19967Z" fill="white" fill-opacity="0.3" style="fill:white;fill-opacity:0.3;"/>
<path d="M394.83 3.71795C395.626 3.0762 396.635 2.78099 397.585 2.43445C398.608 3.87197 399.788 5.19825 400.76 6.67428C399.656 7.39732 398.706 8.53108 398.62 9.90015C398.616 10.2661 398.71 10.6265 398.893 10.9434C399.076 11.2604 399.341 11.5222 399.66 11.7013C401.397 12.8094 403.472 13.1602 405.44 13.6608C408.264 14.3753 411.173 14.7732 413.941 15.7016C413.834 19.4622 413.59 23.2186 413.548 26.9835C413.312 31.6341 413.428 36.2932 413.201 40.9395C410.48 41.0293 407.759 41.2133 405.034 41.2304C404.554 39.6902 404.242 38.1072 403.827 36.5499C402.421 35.9655 400.976 35.4795 399.502 35.0953C399.164 35.1338 399.095 35.5488 398.911 35.7712C397.957 37.4569 397.063 39.1939 396.036 40.8154C395.801 41.2432 395.245 41.0507 394.86 41.102C392.652 41.055 390.445 41.1363 388.237 41.1363C387.54 41.1662 387.073 40.563 386.56 40.1908C389.679 33.4182 392.763 26.6242 395.579 19.7189C395.784 19.1884 396.006 18.6023 395.818 18.0333C395.519 17.0407 394.633 16.4075 393.833 15.8256C392.29 14.7732 390.758 13.7007 389.238 12.6083C389.944 11.0981 390.483 9.48514 391.403 8.08613C392.07 7.95778 392.472 8.67227 392.926 9.03165C392.863 8.06278 392.999 7.09119 393.326 6.17714C393.654 5.2631 394.166 4.42606 394.83 3.71795ZM402.103 22.7694C401.615 24.0828 401.123 25.3963 400.67 26.7226C400.593 27.0691 400.357 27.5782 400.747 27.8093C401.948 28.2863 403.189 28.6557 404.456 28.9131C404.786 28.6564 405.243 28.5066 405.461 28.143C405.582 26.4134 405.573 24.6773 405.436 22.9491C405.376 22.6453 405.414 22.179 405.008 22.0934C404.342 21.8301 403.632 21.6937 402.916 21.6912C402.458 21.811 402.313 22.3758 402.124 22.7694H402.103Z" fill="white" fill-opacity="0.3" style="fill:white;fill-opacity:0.3;"/>
<path d="M470.933 8.19246C471.913 7.7506 472.943 7.43021 474 7.2384C474.458 8.62886 474.403 10.1134 474.578 11.551C474.734 12.5245 474.814 13.5086 474.818 14.4945C474.043 15.1191 473.106 15.5555 472.417 16.2657C471.198 17.3481 470.385 18.7728 469.513 20.1162C468.263 19.6883 467.104 19.0038 465.816 18.6658C465.525 19.5215 465.256 20.4756 465.606 21.3569C465.934 22.1993 466.524 22.9145 467.288 23.3977C468.22 22.7431 468.888 21.8061 469.744 21.0745C470.398 21.1344 470.946 21.5665 471.545 21.8061C473.2 22.6318 475.07 22.726 476.863 23.034C476.713 24.4031 476.585 25.7764 476.366 27.1369C476.336 27.5391 475.892 27.6118 475.601 27.7701C473.757 28.4974 471.896 29.1948 470.064 29.9521C470.261 30.4826 470.459 31.0117 470.659 31.5394C474.741 31.672 478.818 31.9244 482.899 31.8089C483.421 32.4078 484.564 32.9597 484.157 33.901C483.601 35.5738 482.874 37.1867 482.206 38.8211C482.116 39.1377 481.885 39.4585 481.975 39.7965C482.861 40.4083 483.858 40.8405 484.709 41.5079V41.6619C484.517 42.1154 484.337 42.6673 483.806 42.8128C481.667 43.5743 479.528 44.2546 477.427 45.0332C476.666 45.3259 475.869 45.5145 475.057 45.5937C474.878 43.6042 475.139 41.6148 475.224 39.6254C471.254 39.6639 467.309 40.1773 463.343 40.3441C462.915 40.3441 462.286 40.3441 462.222 39.8094C461.401 37.1397 460.9 34.3844 460.173 31.6805C458.74 26.2855 457.559 20.8264 456.322 15.3843C456.272 15.128 456.25 14.8668 456.258 14.6057C457.17 13.8442 458.316 13.4548 459.381 12.9714C463.232 11.3798 467.04 9.6856 470.933 8.19246Z" fill="white" fill-opacity="0.3" style="fill:white;fill-opacity:0.3;"/>
<path d="M428.749 22.6971C431.564 20.5194 434.263 18.192 437.061 15.9886C439.051 17.8882 441.228 19.6424 442.871 21.8671C440.386 23.9207 437.891 25.9657 435.414 28.0322C435.78 29.0652 436.36 30.0092 437.116 30.8019C437.873 31.5946 438.789 32.2181 439.804 32.6314C441.275 33.1833 442.747 32.426 444.018 31.7372C444.615 33.5083 445.086 35.3198 445.425 37.1578C443.654 38.5911 441.768 39.9003 439.864 41.1624C439.665 41.3385 439.41 41.4381 439.144 41.4436C438.878 41.4491 438.619 41.36 438.413 41.1923C435.866 39.5124 433.406 37.7126 431.033 35.7931C430.468 35.325 429.872 34.8962 429.249 34.5096C426.635 36.9482 424.021 39.3869 421.334 41.7399C420.971 41.7399 420.761 41.3763 420.478 41.1838C418.559 39.4182 416.652 37.637 414.758 35.8401C414.373 35.5877 414.848 35.2112 415.007 34.9845C416.915 32.9138 418.836 30.8473 420.71 28.7509C418.977 26.1839 417.415 23.4929 415.815 20.836C415.576 20.5451 416.042 20.3782 416.213 20.2242C418.292 18.8722 420.423 17.6016 422.579 16.3737C424.658 18.4744 426.601 20.6863 428.749 22.6971Z" fill="white" fill-opacity="0.3" style="fill:white;fill-opacity:0.3;"/>
<path d="M443.569 17.4613C447.231 16.8623 450.897 16.3062 454.581 15.8569C455.009 18.7619 454.983 21.714 455.219 24.6361C455.464 29.4592 455.739 34.2823 456.044 39.1054C456.087 39.5333 456.091 40.1621 455.48 39.9953C452.776 39.5675 450.067 39.1396 447.398 38.5407C446.859 38.4679 446.812 37.839 446.73 37.4155C446.388 35.1822 445.806 32.9917 445.481 30.7584C445.374 30.1551 445.81 29.6631 446.033 29.1454C447.237 26.9195 447.544 24.3169 446.889 21.8723C445.977 21.7781 445.053 21.8295 444.15 21.6712C443.781 20.2979 443.585 18.8835 443.569 17.4613Z" fill="white" fill-opacity="0.3" style="fill:white;fill-opacity:0.3;"/>
<path d="M440.005 24.8624C440.125 24.5843 440.398 24.0666 440.775 24.3319C441.631 25.2517 441.678 26.6208 441.695 27.8102C441.631 28.6188 441.695 29.7183 440.813 30.129C440.288 29.3702 439.941 28.5015 439.801 27.589C439.661 26.6765 439.731 25.744 440.005 24.8624Z" fill="white" fill-opacity="0.3" style="fill:white;fill-opacity:0.3;"/>
<path d="M434.451 44.4754H435.91C436.548 45.4252 437.147 46.4049 437.78 47.359C437.78 46.3963 437.78 45.4294 437.848 44.4668H439.35C439.35 46.2252 439.38 47.9836 439.397 49.7463H437.895C437.322 48.9206 436.74 48.1077 436.158 47.2862C436.158 48.1077 436.137 48.9334 436.129 49.7591H434.344C434.4 47.9921 434.421 46.2338 434.451 44.4754Z" fill="white" fill-opacity="0.3" style="fill:white;fill-opacity:0.3;"/>
<path d="M414.664 44.474H416.572C416.572 46.2324 416.551 47.9908 416.542 49.7492H414.626C414.634 47.9951 414.639 46.2367 414.664 44.474Z" fill="white" fill-opacity="0.3" style="fill:white;fill-opacity:0.3;"/>
<path d="M418.373 44.4754H419.862C420.487 45.438 421.09 46.4135 421.719 47.3675C421.719 46.4049 421.74 45.4337 421.753 44.4668H423.272C423.298 46.2252 423.272 47.9836 423.315 49.742H421.843C421.266 48.9377 420.722 48.1077 420.089 47.3504C420.063 48.1462 420.059 48.9462 420.055 49.7463H418.288C418.322 47.9922 418.343 46.2338 418.373 44.4754Z" fill="white" fill-opacity="0.3" style="fill:white;fill-opacity:0.3;"/>
<path d="M425.091 44.474H429.01C429.01 44.9532 429.01 45.4323 429.01 45.9115C428.274 45.9115 427.538 45.9115 426.806 45.9115C426.772 46.1554 426.738 46.3993 426.704 46.6474L427.94 46.6773L428.03 47.6357H426.806C426.806 48.3402 426.816 49.0461 426.836 49.7534H424.992C425.005 47.9908 425.031 46.2324 425.091 44.474Z" fill="white" fill-opacity="0.3" style="fill:white;fill-opacity:0.3;"/>
<path d="M430.729 44.5295C431.35 44.4644 431.975 44.4473 432.599 44.4781C432.599 46.2365 432.599 47.9949 432.573 49.7533H430.652C430.695 48.012 430.592 46.2665 430.729 44.5295Z" fill="white" fill-opacity="0.3" style="fill:white;fill-opacity:0.3;"/>
<path d="M441.164 44.474H443.072C443.072 46.2324 443.051 47.9908 443.047 49.7492H441.126C441.143 47.9951 441.147 46.2367 441.164 44.474Z" fill="white" fill-opacity="0.3" style="fill:white;fill-opacity:0.3;"/>
<path d="M444.865 44.4562C446.516 44.4562 448.168 44.4562 449.819 44.4562C449.849 45.0765 449.858 45.7012 449.819 46.3258H448.164C448.164 47.4681 448.164 48.6105 448.164 49.7485H446.23C446.293 48.6076 446.348 47.4667 446.397 46.3258L444.856 46.3472L444.865 44.4562Z" fill="white" fill-opacity="0.3" style="fill:white;fill-opacity:0.3;"/>
<path d="M450.602 44.4562H452.592C453.02 44.9696 453.447 45.4915 453.832 46.0178C454.098 45.4958 454.363 44.9739 454.641 44.4605C455.313 44.4605 455.984 44.4605 456.66 44.4605C455.825 46.2288 454.983 47.9944 454.136 49.757H451.997C452.352 49.0597 452.703 48.3666 453.067 47.6735C452.258 46.5911 451.428 45.5258 450.602 44.4562Z" fill="white" fill-opacity="0.3" style="fill:white;fill-opacity:0.3;"/>
<path d="M630.106 7.24123H632.583V6.6406L631.945 6.00244H628.867L628.229 6.6406V11.5959L628.867 12.1965H631.945L632.583 11.5959V10.9952H630.106V9.75642H632.583V8.51759H630.106V7.24123Z" fill="white" fill-opacity="0.3" style="fill:white;fill-opacity:0.3;"/>
<path d="M632.17 0.447754H628.679V3.93898H632.17V0.447754Z" fill="white" fill-opacity="0.3" style="fill:white;fill-opacity:0.3;"/>
<path d="M625.375 6.00091V8.47853H623.536V6.00091H622.297L621.659 6.63907V11.5944L622.297 12.195H623.536V9.71736H625.375V12.195H626.614L627.215 11.5944V6.60154L626.614 5.96338H625.375V6.00091Z" fill="white" fill-opacity="0.3" style="fill:white;fill-opacity:0.3;"/>
<path d="M615.69 6.00244L615.052 6.6406V7.24123H616.891V11.5583L617.53 12.159H618.13L618.731 11.5583V7.24123H620.57V6.6406L619.97 6.00244H615.69Z" fill="white" fill-opacity="0.3" style="fill:white;fill-opacity:0.3;"/>
<path d="M548.381 14.3008L545.904 16.7784V26.6889L548.381 29.1665H558.292V34.1218H553.336V31.6442H545.904V36.5994L548.381 39.0771H563.209L565.687 36.5994V26.6889L563.209 24.2113H553.336V19.256H558.292V21.7337H565.725V16.7784L563.247 14.3008H548.381Z" fill="white" fill-opacity="0.3" style="fill:white;fill-opacity:0.3;"/>
<path d="M615.165 14.3008V39.0395H632.47L634.948 36.5619V16.7784L632.47 14.3008H615.165ZM622.597 19.256H627.553V34.0842H622.597V19.256Z" fill="white" fill-opacity="0.3" style="fill:white;fill-opacity:0.3;"/>
<path d="M637.426 14.3027V39.0414H654.732L657.209 36.5638V29.1309L654.732 26.6533L657.209 24.1757V16.7428L654.732 14.2651L637.426 14.3027ZM644.859 29.1684H649.814V34.1237H644.859V29.1684ZM644.859 24.2132V19.2579H649.814V24.2132H644.859Z" fill="white" fill-opacity="0.3" style="fill:white;fill-opacity:0.3;"/>
<path d="M662.164 14.3008L659.687 16.7784V36.5619L662.164 39.0395H676.993L679.47 36.5619V16.7784L676.993 14.3008H662.164ZM667.12 19.256H672.075V34.0842H667.12V19.256Z" fill="white" fill-opacity="0.3" style="fill:white;fill-opacity:0.3;"/>
<path d="M706.423 21.9981L701.751 26.6699L706.423 31.3418L711.095 26.6699L706.423 21.9981Z" fill="white" fill-opacity="0.3" style="fill:white;fill-opacity:0.3;"/>
<path d="M577.77 40.413L573.098 45.0848L577.77 49.7567L582.442 45.0849L577.77 40.413Z" fill="white" fill-opacity="0.3" style="fill:white;fill-opacity:0.3;"/>
<path d="M694.336 14.3008V21.7337L691.859 24.2113L689.381 21.7337V14.3008H684.426L681.948 16.7784V24.2113L684.426 26.6889L681.948 29.1665V36.5994L684.426 39.0771H689.381V31.6442L691.859 29.1665L694.336 31.6442V39.0771H699.291L701.769 36.5994V29.1665L699.291 26.6889L701.769 24.2113V16.7784L699.291 14.3008H694.336Z" fill="white" fill-opacity="0.3" style="fill:white;fill-opacity:0.3;"/>
<path d="M605.254 14.3008V21.7337L597.821 14.3008H592.866L590.388 16.7784V36.5619L592.866 39.0395H597.821V24.2113L605.254 31.6442V39.0771H610.209L612.687 36.5994V16.8159L610.209 14.3383H605.254V14.3008Z" fill="white" fill-opacity="0.3" style="fill:white;fill-opacity:0.3;"/>
<path d="M585.471 14.3755H570.642L568.165 16.8532V36.6366L570.642 39.1142H575.598V29.2037H580.553V39.1142H585.508L587.986 36.6366V16.8532L585.471 14.3755ZM578.075 25.1494L574.922 21.9961L578.075 18.8427L581.229 21.9961L578.075 25.1494Z" fill="white" fill-opacity="0.3" style="fill:white;fill-opacity:0.3;"/>
<path d="M832.191 1.57907C832.717 1.17691 833.179 0.535158 833.863 0.445312C837.012 2.28928 839.69 4.81776 842.172 7.47033C840.461 10.2427 838.155 12.5701 835.827 14.812C835.369 15.1842 834.8 15.8901 834.163 15.4665C832.801 14.6481 831.513 13.7134 830.312 12.6728C828.785 11.3551 827.159 10.1058 825.974 8.43724C827.685 5.8574 829.94 3.71824 832.191 1.57907ZM835.57 6.19967C834.419 7.37465 833.176 8.4562 831.853 9.43409C831.476 8.61348 831.38 7.69207 831.579 6.81148L832.392 7.0639C832.148 7.40617 831.63 7.66286 831.69 8.13775C832.182 8.31744 832.417 7.67569 832.764 7.44466L833.337 7.7741L833.688 7.26925C832.832 6.67884 831.938 6.02426 830.873 5.83602C830.654 7.27584 830.743 8.74562 831.134 10.1486C831.224 10.5293 831.707 10.2641 831.908 10.1486C833.423 9.04049 834.582 7.5174 836.144 6.46493C836.523 7.30689 836.605 8.253 836.375 9.14745C835.883 8.8905 835.408 8.60478 834.95 8.29178C834.685 8.03936 834.475 8.43296 834.287 8.56559C835.124 9.24322 836.089 9.74654 837.123 10.0459C837.368 8.50104 837.257 6.92062 836.798 5.42529C836.339 5.59875 835.921 5.86533 835.57 6.20823V6.19967Z" fill="white" fill-opacity="0.3" style="fill:white;fill-opacity:0.3;"/>
<path d="M780.56 3.71795C781.355 3.0762 782.365 2.78099 783.315 2.43445C784.337 3.87197 785.518 5.19825 786.489 6.67428C785.386 7.39732 784.436 8.53108 784.35 9.90015C784.346 10.2661 784.44 10.6265 784.623 10.9434C784.806 11.2604 785.071 11.5222 785.39 11.7013C787.127 12.8094 789.202 13.1602 791.17 13.6608C793.994 14.3753 796.903 14.7732 799.671 15.7016C799.564 19.4622 799.32 23.2186 799.277 26.9835C799.042 31.6341 799.157 36.2932 798.931 40.9395C796.21 41.0293 793.489 41.2133 790.763 41.2304C790.284 39.6902 789.972 38.1072 789.557 36.5499C788.151 35.9655 786.705 35.4795 785.232 35.0953C784.894 35.1338 784.825 35.5488 784.641 35.7712C783.687 37.4569 782.793 39.1939 781.766 40.8154C781.531 41.2432 780.975 41.0507 780.59 41.102C778.382 41.055 776.174 41.1363 773.967 41.1363C773.269 41.1662 772.803 40.563 772.29 40.1908C775.408 33.4182 778.493 26.6242 781.308 19.7189C781.514 19.1884 781.736 18.6023 781.548 18.0333C781.248 17.0407 780.363 16.4075 779.563 15.8256C778.02 14.7732 776.488 13.7007 774.968 12.6083C775.674 11.0981 776.213 9.48514 777.133 8.08613C777.8 7.95778 778.202 8.67227 778.656 9.03165C778.592 8.06278 778.729 7.09119 779.056 6.17714C779.383 5.2631 779.895 4.42606 780.56 3.71795ZM787.833 22.7694C787.345 24.0828 786.853 25.3963 786.4 26.7226C786.322 27.0691 786.087 27.5782 786.477 27.8093C787.678 28.2863 788.919 28.6557 790.186 28.9131C790.515 28.6564 790.973 28.5066 791.191 28.143C791.312 26.4134 791.303 24.6773 791.166 22.9491C791.106 22.6453 791.144 22.179 790.738 22.0934C790.072 21.8301 789.362 21.6937 788.646 21.6912C788.188 21.811 788.042 22.3758 787.854 22.7694H787.833Z" fill="white" fill-opacity="0.3" style="fill:white;fill-opacity:0.3;"/>
<path d="M856.663 8.19246C857.642 7.7506 858.673 7.43021 859.73 7.2384C860.188 8.62886 860.132 10.1134 860.308 11.551C860.463 12.5245 860.544 13.5086 860.547 14.4945C859.773 15.1191 858.836 15.5555 858.147 16.2657C856.928 17.3481 856.115 18.7728 855.242 20.1162C853.993 19.6883 852.834 19.0038 851.546 18.6658C851.255 19.5215 850.985 20.4756 851.336 21.3569C851.664 22.1993 852.253 22.9145 853.018 23.3977C853.95 22.7431 854.618 21.8061 855.473 21.0745C856.128 21.1344 856.675 21.5665 857.274 21.8061C858.93 22.6318 860.8 22.726 862.592 23.034C862.443 24.4031 862.314 25.7764 862.096 27.1369C862.066 27.5391 861.621 27.6118 861.33 27.7701C859.486 28.4974 857.625 29.1948 855.794 29.9521C855.991 30.4826 856.189 31.0117 856.389 31.5394C860.47 31.672 864.548 31.9244 868.629 31.8089C869.151 32.4078 870.293 32.9597 869.887 33.901C869.331 35.5738 868.603 37.1867 867.936 38.8211C867.846 39.1377 867.615 39.4585 867.705 39.7965C868.591 40.4083 869.587 40.8405 870.439 41.5079V41.6619C870.246 42.1154 870.067 42.6673 869.536 42.8128C867.397 43.5743 865.258 44.2546 863.157 45.0332C862.396 45.3259 861.599 45.5145 860.787 45.5937C860.607 43.6042 860.868 41.6148 860.954 39.6254C856.984 39.6639 853.039 40.1773 849.073 40.3441C848.645 40.3441 848.016 40.3441 847.952 39.8094C847.131 37.1397 846.63 34.3844 845.903 31.6805C844.469 26.2855 843.289 20.8264 842.052 15.3843C842.001 15.128 841.98 14.8668 841.988 14.6057C842.899 13.8442 844.046 13.4548 845.111 12.9714C848.962 11.3798 852.769 9.6856 856.663 8.19246Z" fill="white" fill-opacity="0.3" style="fill:white;fill-opacity:0.3;"/>
<path d="M814.478 22.6971C817.293 20.5194 819.993 18.192 822.791 15.9886C824.78 17.8882 826.958 19.6424 828.601 21.8671C826.115 23.9207 823.621 25.9657 821.144 28.0322C821.509 29.0652 822.09 30.0092 822.846 30.8019C823.603 31.5946 824.519 32.2181 825.533 32.6314C827.005 33.1833 828.477 32.426 829.748 31.7372C830.345 33.5083 830.815 35.3198 831.155 37.1578C829.384 38.5911 827.497 39.9003 825.593 41.1624C825.394 41.3385 825.139 41.4381 824.874 41.4436C824.608 41.4491 824.349 41.36 824.143 41.1923C821.596 39.5124 819.136 37.7126 816.763 35.7931C816.198 35.325 815.602 34.8962 814.979 34.5096C812.365 36.9482 809.751 39.3869 807.064 41.7399C806.7 41.7399 806.491 41.3763 806.208 41.1838C804.289 39.4182 802.382 37.637 800.488 35.8401C800.103 35.5877 800.578 35.2112 800.736 34.9845C802.644 32.9138 804.565 30.8473 806.439 28.7509C804.707 26.1839 803.145 23.4929 801.545 20.836C801.305 20.5451 801.772 20.3782 801.943 20.2242C804.022 18.8722 806.153 17.6016 808.309 16.3737C810.388 18.4744 812.331 20.6863 814.478 22.6971Z" fill="white" fill-opacity="0.3" style="fill:white;fill-opacity:0.3;"/>
<path d="M829.298 17.4613C832.961 16.8623 836.627 16.3062 840.311 15.8569C840.739 18.7619 840.713 21.714 840.948 24.6361C841.194 29.4592 841.469 34.2823 841.774 39.1054C841.817 39.5333 841.821 40.1621 841.209 39.9953C838.505 39.5675 835.797 39.1396 833.127 38.5407C832.588 38.4679 832.541 37.839 832.46 37.4155C832.118 35.1822 831.536 32.9917 831.211 30.7584C831.104 30.1551 831.54 29.6631 831.763 29.1454C832.967 26.9195 833.273 24.3169 832.618 21.8723C831.707 21.7781 830.783 21.8295 829.88 21.6712C829.51 20.2979 829.315 18.8835 829.298 17.4613Z" fill="white" fill-opacity="0.3" style="fill:white;fill-opacity:0.3;"/>
<path d="M825.735 24.8624C825.854 24.5843 826.128 24.0666 826.505 24.3319C827.36 25.2517 827.407 26.6208 827.424 27.8102C827.36 28.6188 827.424 29.7183 826.543 30.129C826.017 29.3702 825.671 28.5015 825.531 27.589C825.391 26.6765 825.461 25.744 825.735 24.8624Z" fill="white" fill-opacity="0.3" style="fill:white;fill-opacity:0.3;"/>
<path d="M820.181 44.4754H821.64C822.278 45.4252 822.877 46.4049 823.51 47.359C823.51 46.3963 823.51 45.4294 823.578 44.4668H825.08C825.08 46.2252 825.11 47.9836 825.127 49.7463H823.625C823.052 48.9206 822.47 48.1077 821.888 47.2862C821.888 48.1077 821.867 48.9334 821.858 49.7591H820.074C820.13 47.9921 820.151 46.2338 820.181 44.4754Z" fill="white" fill-opacity="0.3" style="fill:white;fill-opacity:0.3;"/>
<path d="M800.394 44.474H802.302C802.302 46.2324 802.281 47.9908 802.272 49.7492H800.355C800.364 47.9951 800.368 46.2367 800.394 44.474Z" fill="white" fill-opacity="0.3" style="fill:white;fill-opacity:0.3;"/>
<path d="M804.103 44.4754H805.592C806.217 45.438 806.82 46.4135 807.449 47.3675C807.449 46.4049 807.47 45.4337 807.483 44.4668H809.002C809.028 46.2252 809.002 47.9836 809.045 49.742H807.573C806.995 48.9377 806.452 48.1077 805.819 47.3504C805.793 48.1462 805.789 48.9462 805.785 49.7463H804.018C804.052 47.9922 804.073 46.2338 804.103 44.4754Z" fill="white" fill-opacity="0.3" style="fill:white;fill-opacity:0.3;"/>
<path d="M810.82 44.474H814.739C814.739 44.9532 814.739 45.4323 814.739 45.9115C814.003 45.9115 813.268 45.9115 812.536 45.9115C812.502 46.1554 812.467 46.3993 812.433 46.6474L813.67 46.6773L813.76 47.6357H812.536C812.536 48.3402 812.546 49.0461 812.566 49.7534H810.722C810.735 47.9908 810.76 46.2324 810.82 44.474Z" fill="white" fill-opacity="0.3" style="fill:white;fill-opacity:0.3;"/>
<path d="M816.459 44.5295C817.08 44.4644 817.705 44.4473 818.329 44.4781C818.329 46.2365 818.329 47.9949 818.303 49.7533H816.382C816.425 48.012 816.322 46.2665 816.459 44.5295Z" fill="white" fill-opacity="0.3" style="fill:white;fill-opacity:0.3;"/>
<path d="M826.894 44.474H828.802C828.802 46.2324 828.781 47.9908 828.776 49.7492H826.855C826.873 47.9951 826.877 46.2367 826.894 44.474Z" fill="white" fill-opacity="0.3" style="fill:white;fill-opacity:0.3;"/>
<path d="M830.595 44.4562C832.246 44.4562 833.898 44.4562 835.549 44.4562C835.579 45.0765 835.588 45.7012 835.549 46.3258H833.893C833.893 47.4681 833.893 48.6105 833.893 49.7485H831.96C832.022 48.6076 832.078 47.4667 832.126 46.3258L830.586 46.3472L830.595 44.4562Z" fill="white" fill-opacity="0.3" style="fill:white;fill-opacity:0.3;"/>
<path d="M836.332 44.4562H838.321C838.749 44.9696 839.177 45.4915 839.562 46.0178C839.827 45.4958 840.093 44.9739 840.371 44.4605C841.042 44.4605 841.714 44.4605 842.39 44.4605C841.554 46.2288 840.713 47.9944 839.866 49.757H837.727C838.082 49.0597 838.433 48.3666 838.796 47.6735C837.988 46.5911 837.158 45.5258 836.332 44.4562Z" fill="white" fill-opacity="0.3" style="fill:white;fill-opacity:0.3;"/>
<path d="M1015.84 7.24123H1018.31V6.6406L1017.67 6.00244H1014.6L1013.96 6.6406V11.5959L1014.6 12.1965H1017.67L1018.31 11.5959V10.9952H1015.84V9.75642H1018.31V8.51759H1015.84V7.24123Z" fill="white" fill-opacity="0.3" style="fill:white;fill-opacity:0.3;"/>
<path d="M1017.9 0.447754H1014.41V3.93898H1017.9V0.447754Z" fill="white" fill-opacity="0.3" style="fill:white;fill-opacity:0.3;"/>
<path d="M1011.11 6.00091V8.47853H1009.27V6.00091H1008.03L1007.39 6.63907V11.5944L1008.03 12.195H1009.27V9.71736H1011.11V12.195H1012.34L1012.94 11.5944V6.60154L1012.34 5.96338H1011.11V6.00091Z" fill="white" fill-opacity="0.3" style="fill:white;fill-opacity:0.3;"/>
<path d="M1001.42 6.00244L1000.78 6.6406V7.24123H1002.62V11.5583L1003.26 12.159H1003.86L1004.46 11.5583V7.24123H1006.3V6.6406L1005.7 6.00244H1001.42Z" fill="white" fill-opacity="0.3" style="fill:white;fill-opacity:0.3;"/>
<path d="M934.111 14.3008L931.633 16.7784V26.6889L934.111 29.1665H944.021V34.1218H939.066V31.6442H931.633V36.5994L934.111 39.0771H948.939L951.417 36.5994V26.6889L948.939 24.2113H939.066V19.256H944.021V21.7337H951.454V16.7784L948.977 14.3008H934.111Z" fill="white" fill-opacity="0.3" style="fill:white;fill-opacity:0.3;"/>
<path d="M1000.89 14.3008V39.0395H1018.2L1020.68 36.5619V16.7784L1018.2 14.3008H1000.89ZM1008.33 19.256H1013.28V34.0842H1008.33V19.256Z" fill="white" fill-opacity="0.3" style="fill:white;fill-opacity:0.3;"/>
<path d="M1023.16 14.3027V39.0414H1040.46L1042.94 36.5638V29.1309L1040.46 26.6533L1042.94 24.1757V16.7428L1040.46 14.2651L1023.16 14.3027ZM1030.59 29.1684H1035.54V34.1237H1030.59V29.1684ZM1030.59 24.2132V19.2579H1035.54V24.2132H1030.59Z" fill="white" fill-opacity="0.3" style="fill:white;fill-opacity:0.3;"/>
<path d="M1047.89 14.3008L1045.42 16.7784V36.5619L1047.89 39.0395H1062.72L1065.2 36.5619V16.7784L1062.72 14.3008H1047.89ZM1052.85 19.256H1057.8V34.0842H1052.85V19.256Z" fill="white" fill-opacity="0.3" style="fill:white;fill-opacity:0.3;"/>
<path d="M1092.15 21.9981L1087.48 26.6699L1092.15 31.3418L1096.82 26.6699L1092.15 21.9981Z" fill="white" fill-opacity="0.3" style="fill:white;fill-opacity:0.3;"/>
<path d="M963.5 40.413L958.828 45.0848L963.5 49.7567L968.172 45.0849L963.5 40.413Z" fill="white" fill-opacity="0.3" style="fill:white;fill-opacity:0.3;"/>
<path d="M1080.07 14.3008V21.7337L1077.59 24.2113L1075.11 21.7337V14.3008H1070.16L1067.68 16.7784V24.2113L1070.16 26.6889L1067.68 29.1665V36.5994L1070.16 39.0771H1075.11V31.6442L1077.59 29.1665L1080.07 31.6442V39.0771H1085.02L1087.5 36.5994V29.1665L1085.02 26.6889L1087.5 24.2113V16.7784L1085.02 14.3008H1080.07Z" fill="white" fill-opacity="0.3" style="fill:white;fill-opacity:0.3;"/>
<path d="M990.984 14.3008V21.7337L983.551 14.3008H978.596L976.118 16.7784V36.5619L978.596 39.0395H983.551V24.2113L990.984 31.6442V39.0771H995.939L998.417 36.5994V16.8159L995.939 14.3383H990.984V14.3008Z" fill="white" fill-opacity="0.3" style="fill:white;fill-opacity:0.3;"/>
<path d="M971.2 14.3755H956.372L953.895 16.8532V36.6366L956.372 39.1142H961.327V29.2037H966.283V39.1142H971.238L973.716 36.6366V16.8532L971.2 14.3755ZM963.805 25.1494L960.652 21.9961L963.805 18.8427L966.958 21.9961L963.805 25.1494Z" fill="white" fill-opacity="0.3" style="fill:white;fill-opacity:0.3;"/>
<path d="M85.0318 90.5551H87.5094V89.9544L86.8712 89.3163H83.793L83.1548 89.9544V94.9097L83.793 95.5104H86.8712L87.5094 94.9097V94.3091H85.0318V93.0703H87.5094V91.8314H85.0318V90.5551Z" fill="white" fill-opacity="0.3" style="fill:white;fill-opacity:0.3;"/>
<path d="M87.0967 83.7616H83.6055V87.2528H87.0967V83.7616Z" fill="white" fill-opacity="0.3" style="fill:white;fill-opacity:0.3;"/>
<path d="M80.3019 89.3148V91.7924H78.4624V89.3148H77.2236L76.5854 89.9529V94.9082L77.2236 95.5088H78.4624V93.0312H80.3019V95.5088H81.5407L82.1413 94.9082V89.9154L81.5407 89.2772H80.3019V89.3148Z" fill="white" fill-opacity="0.3" style="fill:white;fill-opacity:0.3;"/>
<path d="M70.6167 89.3163L69.9785 89.9544V90.5551H71.818V94.8722L72.4561 95.4728H73.0568L73.6574 94.8722V90.5551H75.4969V89.9544L74.8962 89.3163H70.6167Z" fill="white" fill-opacity="0.3" style="fill:white;fill-opacity:0.3;"/>
<path d="M3.30771 97.6146L0.830078 100.092V110.003L3.30771 112.48H13.2182V117.436H8.26296V114.958H0.830078V119.913L3.30771 122.391H18.1359L20.6136 119.913V110.003L18.1359 107.525H8.26296V102.57H13.2182V105.048H20.6511V100.092L18.1735 97.6146H3.30771Z" fill="white" fill-opacity="0.3" style="fill:white;fill-opacity:0.3;"/>
<path d="M70.0908 97.6146V122.353H87.3967L89.8743 119.876V100.092L87.3967 97.6146H70.0908ZM77.5237 102.57H82.479V117.398H77.5237V102.57Z" fill="white" fill-opacity="0.3" style="fill:white;fill-opacity:0.3;"/>
<path d="M92.3521 97.6165V122.355H109.658L112.136 119.878V112.445L109.658 109.967L112.136 107.49V100.057L109.658 97.579L92.3521 97.6165ZM99.7849 112.482H104.74V117.438H99.7849V112.482ZM99.7849 107.527V102.572H104.74V107.527H99.7849Z" fill="white" fill-opacity="0.3" style="fill:white;fill-opacity:0.3;"/>
<path d="M117.091 97.6146L114.613 100.092V119.876L117.091 122.353H131.919L134.397 119.876V100.092L131.919 97.6146H117.091ZM122.046 102.57H127.001V117.398H122.046V102.57Z" fill="white" fill-opacity="0.3" style="fill:white;fill-opacity:0.3;"/>
<path d="M161.35 105.312L156.678 109.984L161.35 114.656L166.021 109.984L161.35 105.312Z" fill="white" fill-opacity="0.3" style="fill:white;fill-opacity:0.3;"/>
<path d="M32.6962 123.727L28.0244 128.399L32.6963 133.071L37.3681 128.399L32.6962 123.727Z" fill="white" fill-opacity="0.3" style="fill:white;fill-opacity:0.3;"/>
<path d="M149.263 97.6146V105.048L146.785 107.525L144.307 105.048V97.6146H139.352L136.875 100.092V107.525L139.352 110.003L136.875 112.48V119.913L139.352 122.391H144.307V114.958L146.785 112.48L149.263 114.958V122.391H154.218L156.696 119.913V112.48L154.218 110.003L156.696 107.525V100.092L154.218 97.6146H149.263Z" fill="white" fill-opacity="0.3" style="fill:white;fill-opacity:0.3;"/>
<path d="M60.1807 97.6146V105.048L52.7478 97.6146H47.7926L45.3149 100.092V119.876L47.7926 122.353H52.7478V107.525L60.1807 114.958V122.391H65.136L67.6136 119.913V100.13L65.136 97.6522H60.1807V97.6146Z" fill="white" fill-opacity="0.3" style="fill:white;fill-opacity:0.3;"/>
<path d="M40.3972 97.6893H25.5689L23.0913 100.167V119.95L25.5689 122.428H30.5242V112.518H35.4794V122.428H40.4347L42.9123 119.95V100.167L40.3972 97.6893ZM33.0018 108.463L29.8485 105.31L33.0018 102.157L36.1552 105.31L33.0018 108.463Z" fill="white" fill-opacity="0.3" style="fill:white;fill-opacity:0.3;"/>
<path d="M287.117 84.8929C287.643 84.4907 288.105 83.849 288.79 83.7592C291.938 85.6031 294.617 88.1316 297.098 90.7842C295.387 93.5565 293.081 95.884 290.753 98.1258C290.296 98.498 289.727 99.2039 289.089 98.7804C287.727 97.962 286.439 97.0272 285.239 95.9866C283.711 94.6689 282.085 93.4196 280.9 91.7511C282.612 89.1712 284.866 87.0321 287.117 84.8929ZM290.497 89.5135C289.345 90.6885 288.102 91.77 286.779 92.7479C286.403 91.9273 286.307 91.0059 286.505 90.1253L287.318 90.3777C287.074 90.72 286.556 90.9767 286.616 91.4516C287.108 91.6313 287.344 90.9895 287.69 90.7585L288.263 91.0879L288.614 90.5831C287.759 89.9927 286.864 89.3381 285.799 89.1499C285.581 90.5897 285.669 92.0595 286.06 93.4624C286.15 93.8432 286.633 93.5779 286.834 93.4624C288.349 92.3543 289.508 90.8312 291.07 89.7788C291.45 90.6207 291.531 91.5668 291.301 92.4613C290.81 92.2043 290.334 91.9186 289.876 91.6056C289.611 91.3532 289.401 91.7468 289.213 91.8794C290.051 92.5571 291.015 93.0604 292.05 93.3597C292.295 91.8149 292.184 90.2345 291.725 88.7391C291.266 88.9126 290.848 89.1792 290.497 89.5221V89.5135Z" fill="white" fill-opacity="0.3" style="fill:white;fill-opacity:0.3;"/>
<path d="M235.486 87.0318C236.282 86.39 237.291 86.0948 238.241 85.7483C239.264 87.1858 240.444 88.5121 241.416 89.9881C240.312 90.7112 239.362 91.8449 239.276 93.214C239.272 93.5799 239.366 93.9403 239.549 94.2573C239.732 94.5743 239.997 94.8361 240.316 95.0152C242.053 96.1233 244.128 96.4741 246.096 96.9746C248.92 97.6891 251.829 98.087 254.597 99.0154C254.49 102.776 254.246 106.532 254.204 110.297C253.968 114.948 254.084 119.607 253.857 124.253C251.136 124.343 248.415 124.527 245.69 124.544C245.21 123.004 244.898 121.421 244.483 119.864C243.077 119.279 241.632 118.793 240.158 118.409C239.82 118.448 239.751 118.863 239.567 119.085C238.613 120.771 237.719 122.508 236.692 124.129C236.457 124.557 235.901 124.365 235.516 124.416C233.308 124.369 231.101 124.45 228.893 124.45C228.196 124.48 227.729 123.877 227.216 123.505C230.335 116.732 233.419 109.938 236.235 103.033C236.44 102.502 236.662 101.916 236.474 101.347C236.175 100.355 235.289 99.7213 234.489 99.1395C232.946 98.087 231.414 97.0146 229.894 95.9222C230.6 94.4119 231.139 92.799 232.059 91.4C232.726 91.2716 233.128 91.9861 233.582 92.3455C233.519 91.3766 233.655 90.405 233.982 89.491C234.31 88.5769 234.822 87.7399 235.486 87.0318ZM242.759 106.083C242.271 107.397 241.779 108.71 241.326 110.036C241.249 110.383 241.013 110.892 241.403 111.123C242.604 111.6 243.845 111.97 245.112 112.227C245.442 111.97 245.899 111.82 246.118 111.457C246.238 109.727 246.229 107.991 246.092 106.263C246.032 105.959 246.07 105.493 245.664 105.407C244.998 105.144 244.288 105.008 243.572 105.005C243.114 105.125 242.969 105.69 242.78 106.083H242.759Z" fill="white" fill-opacity="0.3" style="fill:white;fill-opacity:0.3;"/>
<path d="M311.589 91.5063C312.569 91.0644 313.599 90.7441 314.656 90.5522C315.114 91.9427 315.059 93.4273 315.234 94.8648C315.39 95.8383 315.47 96.8224 315.474 97.8083C314.699 98.4329 313.762 98.8693 313.074 99.5795C311.854 100.662 311.041 102.087 310.169 103.43C308.919 103.002 307.76 102.318 306.472 101.98C306.181 102.835 305.912 103.789 306.262 104.671C306.59 105.513 307.18 106.228 307.944 106.712C308.876 106.057 309.544 105.12 310.4 104.388C311.054 104.448 311.602 104.88 312.201 105.12C313.856 105.946 315.726 106.04 317.519 106.348C317.369 107.717 317.241 109.09 317.022 110.451C316.992 110.853 316.548 110.926 316.257 111.084C314.413 111.811 312.552 112.509 310.72 113.266C310.917 113.796 311.115 114.326 311.315 114.853C315.397 114.986 319.474 115.238 323.555 115.123C324.077 115.722 325.22 116.274 324.813 117.215C324.257 118.888 323.53 120.501 322.862 122.135C322.772 122.452 322.541 122.772 322.631 123.11C323.517 123.722 324.514 124.154 325.365 124.822V124.976C325.173 125.429 324.993 125.981 324.462 126.127C322.323 126.888 320.184 127.568 318.083 128.347C317.322 128.64 316.525 128.828 315.713 128.908C315.534 126.918 315.795 124.929 315.88 122.939C311.91 122.978 307.965 123.491 303.999 123.658C303.571 123.658 302.942 123.658 302.878 123.123C302.057 120.454 301.556 117.698 300.829 114.994C299.396 109.599 298.215 104.14 296.978 98.6982C296.928 98.4419 296.906 98.1807 296.914 97.9195C297.826 97.158 298.972 96.7687 300.037 96.2852C303.888 94.6937 307.696 92.9994 311.589 91.5063Z" fill="white" fill-opacity="0.3" style="fill:white;fill-opacity:0.3;"/>
<path d="M269.404 106.011C272.219 103.833 274.919 101.506 277.717 99.3025C279.707 101.202 281.884 102.956 283.527 105.181C281.041 107.235 278.547 109.28 276.07 111.346C276.435 112.379 277.016 113.323 277.772 114.116C278.529 114.908 279.445 115.532 280.46 115.945C281.931 116.497 283.403 115.74 284.674 115.051C285.271 116.822 285.741 118.634 286.081 120.472C284.31 121.905 282.423 123.214 280.519 124.476C280.32 124.652 280.065 124.752 279.8 124.757C279.534 124.763 279.275 124.674 279.069 124.506C276.522 122.826 274.062 121.026 271.689 119.107C271.124 118.639 270.528 118.21 269.905 117.823C267.291 120.262 264.677 122.701 261.99 125.054C261.626 125.054 261.417 124.69 261.134 124.498C259.215 122.732 257.308 120.951 255.414 119.154C255.029 118.902 255.504 118.525 255.662 118.298C257.57 116.228 259.491 114.161 261.365 112.065C259.633 109.498 258.071 106.807 256.471 104.15C256.231 103.859 256.698 103.692 256.869 103.538C258.948 102.186 261.079 100.915 263.235 99.6875C265.314 101.788 267.257 104 269.404 106.011Z" fill="white" fill-opacity="0.3" style="fill:white;fill-opacity:0.3;"/>
<path d="M284.225 100.775C287.887 100.176 291.553 99.62 295.237 99.1708C295.665 102.076 295.639 105.028 295.875 107.95C296.12 112.773 296.395 117.596 296.7 122.419C296.743 122.847 296.747 123.476 296.136 123.309C293.432 122.881 290.723 122.453 288.054 121.855C287.515 121.782 287.468 121.153 287.386 120.729C287.044 118.496 286.462 116.306 286.137 114.072C286.03 113.469 286.466 112.977 286.689 112.459C287.893 110.233 288.2 107.631 287.545 105.186C286.633 105.092 285.709 105.143 284.806 104.985C284.437 103.612 284.241 102.197 284.225 100.775Z" fill="white" fill-opacity="0.3" style="fill:white;fill-opacity:0.3;"/>
<path d="M280.661 108.176C280.781 107.898 281.055 107.38 281.431 107.646C282.287 108.566 282.334 109.935 282.351 111.124C282.287 111.933 282.351 113.032 281.47 113.443C280.944 112.684 280.598 111.815 280.458 110.903C280.318 109.99 280.387 109.058 280.661 108.176Z" fill="white" fill-opacity="0.3" style="fill:white;fill-opacity:0.3;"/>
<path d="M275.107 127.789H276.566C277.204 128.739 277.803 129.719 278.436 130.673C278.436 129.71 278.436 128.743 278.504 127.781H280.006C280.006 129.539 280.036 131.297 280.053 133.06H278.552C277.978 132.234 277.396 131.422 276.814 130.6C276.814 131.422 276.793 132.247 276.785 133.073H275C275.056 131.306 275.077 129.548 275.107 127.789Z" fill="white" fill-opacity="0.3" style="fill:white;fill-opacity:0.3;"/>
<path d="M255.32 127.788H257.228C257.228 129.546 257.207 131.305 257.198 133.063H255.282C255.29 131.309 255.295 129.551 255.32 127.788Z" fill="white" fill-opacity="0.3" style="fill:white;fill-opacity:0.3;"/>
<path d="M259.029 127.789H260.518C261.143 128.752 261.746 129.727 262.375 130.681C262.375 129.719 262.396 128.748 262.409 127.781H263.928C263.954 129.539 263.928 131.297 263.971 133.056H262.499C261.922 132.252 261.378 131.421 260.745 130.664C260.719 131.46 260.715 132.26 260.711 133.06H258.944C258.978 131.306 258.999 129.548 259.029 127.789Z" fill="white" fill-opacity="0.3" style="fill:white;fill-opacity:0.3;"/>
<path d="M265.746 127.788H269.665C269.665 128.267 269.665 128.746 269.665 129.225C268.929 129.225 268.194 129.225 267.462 129.225C267.428 129.469 267.394 129.713 267.359 129.961L268.596 129.991L268.686 130.95H267.462C267.462 131.654 267.472 132.36 267.492 133.067H265.648C265.661 131.305 265.686 129.546 265.746 127.788Z" fill="white" fill-opacity="0.3" style="fill:white;fill-opacity:0.3;"/>
<path d="M271.385 127.843C272.006 127.778 272.631 127.761 273.255 127.792C273.255 129.55 273.255 131.309 273.229 133.067H271.308C271.351 131.326 271.248 129.58 271.385 127.843Z" fill="white" fill-opacity="0.3" style="fill:white;fill-opacity:0.3;"/>
<path d="M281.82 127.788H283.728C283.728 129.546 283.707 131.305 283.703 133.063H281.782C281.799 131.309 281.803 129.551 281.82 127.788Z" fill="white" fill-opacity="0.3" style="fill:white;fill-opacity:0.3;"/>
<path d="M285.521 127.77C287.172 127.77 288.824 127.77 290.475 127.77C290.505 128.39 290.514 129.015 290.475 129.64H288.819C288.819 130.782 288.819 131.924 288.819 133.062H286.886C286.948 131.921 287.004 130.781 287.052 129.64L285.512 129.661L285.521 127.77Z" fill="white" fill-opacity="0.3" style="fill:white;fill-opacity:0.3;"/>
<path d="M291.258 127.77H293.248C293.676 128.283 294.103 128.805 294.488 129.332C294.754 128.81 295.019 128.288 295.297 127.774C295.969 127.774 296.64 127.774 297.316 127.774C296.481 129.543 295.639 131.308 294.792 133.071H292.653C293.008 132.374 293.359 131.68 293.723 130.987C292.914 129.905 292.084 128.84 291.258 127.77Z" fill="white" fill-opacity="0.3" style="fill:white;fill-opacity:0.3;"/>
<path d="M470.762 90.5551H473.239V89.9544L472.601 89.3163H469.523L468.885 89.9544V94.9097L469.523 95.5104H472.601L473.239 94.9097V94.3091H470.762V93.0703H473.239V91.8314H470.762V90.5551Z" fill="white" fill-opacity="0.3" style="fill:white;fill-opacity:0.3;"/>
<path d="M472.826 83.7616H469.335V87.2528H472.826V83.7616Z" fill="white" fill-opacity="0.3" style="fill:white;fill-opacity:0.3;"/>
<path d="M466.032 89.3148V91.7924H464.192V89.3148H462.953L462.315 89.9529V94.9082L462.953 95.5088H464.192V93.0312H466.032V95.5088H467.27L467.871 94.9082V89.9154L467.27 89.2772H466.032V89.3148Z" fill="white" fill-opacity="0.3" style="fill:white;fill-opacity:0.3;"/>
<path d="M456.346 89.3163L455.708 89.9544V90.5551H457.548V94.8722L458.186 95.4728H458.787L459.387 94.8722V90.5551H461.227V89.9544L460.626 89.3163H456.346Z" fill="white" fill-opacity="0.3" style="fill:white;fill-opacity:0.3;"/>
<path d="M389.037 97.6146L386.56 100.092V110.003L389.037 112.48H398.948V117.436H393.993V114.958H386.56V119.913L389.037 122.391H403.866L406.343 119.913V110.003L403.866 107.525H393.993V102.57H398.948V105.048H406.381V100.092L403.903 97.6146H389.037Z" fill="white" fill-opacity="0.3" style="fill:white;fill-opacity:0.3;"/>
<path d="M455.821 97.6146V122.353H473.127L475.604 119.876V100.092L473.127 97.6146H455.821ZM463.254 102.57H468.209V117.398H463.254V102.57Z" fill="white" fill-opacity="0.3" style="fill:white;fill-opacity:0.3;"/>
<path d="M478.082 97.6165V122.355H495.388L497.866 119.878V112.445L495.388 109.967L497.866 107.49V100.057L495.388 97.579L478.082 97.6165ZM485.515 112.482H490.47V117.438H485.515V112.482ZM485.515 107.527V102.572H490.47V107.527H485.515Z" fill="white" fill-opacity="0.3" style="fill:white;fill-opacity:0.3;"/>
<path d="M502.821 97.6146L500.343 100.092V119.876L502.821 122.353H517.649L520.126 119.876V100.092L517.649 97.6146H502.821ZM507.776 102.57H512.731V117.398H507.776V102.57Z" fill="white" fill-opacity="0.3" style="fill:white;fill-opacity:0.3;"/>
<path d="M547.079 105.312L542.407 109.984L547.079 114.656L551.751 109.984L547.079 105.312Z" fill="white" fill-opacity="0.3" style="fill:white;fill-opacity:0.3;"/>
<path d="M418.426 123.727L413.754 128.399L418.426 133.071L423.098 128.399L418.426 123.727Z" fill="white" fill-opacity="0.3" style="fill:white;fill-opacity:0.3;"/>
<path d="M534.992 97.6146V105.048L532.515 107.525L530.037 105.048V97.6146H525.082L522.604 100.092V107.525L525.082 110.003L522.604 112.48V119.913L525.082 122.391H530.037V114.958L532.515 112.48L534.992 114.958V122.391H539.948L542.425 119.913V112.48L539.948 110.003L542.425 107.525V100.092L539.948 97.6146H534.992Z" fill="white" fill-opacity="0.3" style="fill:white;fill-opacity:0.3;"/>
<path d="M445.91 97.6146V105.048L438.477 97.6146H433.522L431.044 100.092V119.876L433.522 122.353H438.477V107.525L445.91 114.958V122.391H450.865L453.343 119.913V100.13L450.865 97.6522H445.91V97.6146Z" fill="white" fill-opacity="0.3" style="fill:white;fill-opacity:0.3;"/>
<path d="M426.127 97.6893H411.299L408.821 100.167V119.95L411.299 122.428H416.254V112.518H421.209V122.428H426.164L428.642 119.95V100.167L426.127 97.6893ZM418.732 108.463L415.578 105.31L418.732 102.157L421.885 105.31L418.732 108.463Z" fill="white" fill-opacity="0.3" style="fill:white;fill-opacity:0.3;"/>
<path d="M672.847 84.8929C673.373 84.4907 673.835 83.849 674.52 83.7592C677.668 85.6031 680.347 88.1316 682.828 90.7842C681.117 93.5565 678.811 95.884 676.483 98.1258C676.026 98.498 675.457 99.2039 674.819 98.7804C673.457 97.962 672.169 97.0272 670.969 95.9866C669.441 94.6689 667.815 93.4196 666.63 91.7511C668.342 89.1712 670.596 87.0321 672.847 84.8929ZM676.227 89.5135C675.075 90.6885 673.832 91.77 672.509 92.7479C672.133 91.9273 672.037 91.0059 672.235 90.1253L673.048 90.3777C672.804 90.72 672.286 90.9767 672.346 91.4516C672.838 91.6313 673.074 90.9895 673.42 90.7585L673.993 91.0879L674.344 90.5831C673.489 89.9927 672.594 89.3381 671.529 89.1499C671.311 90.5897 671.399 92.0595 671.79 93.4624C671.88 93.8432 672.363 93.5779 672.564 93.4624C674.079 92.3543 675.238 90.8312 676.8 89.7788C677.18 90.6207 677.261 91.5668 677.031 92.4613C676.54 92.2043 676.064 91.9186 675.606 91.6056C675.341 91.3532 675.131 91.7468 674.943 91.8794C675.781 92.5571 676.745 93.0604 677.78 93.3597C678.025 91.8149 677.913 90.2345 677.455 88.7391C676.996 88.9126 676.578 89.1792 676.227 89.5221V89.5135Z" fill="white" fill-opacity="0.3" style="fill:white;fill-opacity:0.3;"/>
<path d="M621.216 87.0318C622.012 86.39 623.021 86.0948 623.971 85.7483C624.994 87.1858 626.174 88.5121 627.146 89.9881C626.042 90.7112 625.092 91.8449 625.006 93.214C625.002 93.5799 625.096 93.9403 625.279 94.2573C625.462 94.5743 625.727 94.8361 626.046 95.0152C627.783 96.1233 629.858 96.4741 631.826 96.9746C634.65 97.6891 637.559 98.087 640.327 99.0154C640.22 102.776 639.976 106.532 639.934 110.297C639.698 114.948 639.814 119.607 639.587 124.253C636.866 124.343 634.145 124.527 631.42 124.544C630.94 123.004 630.628 121.421 630.213 119.864C628.807 119.279 627.361 118.793 625.888 118.409C625.55 118.448 625.481 118.863 625.297 119.085C624.343 120.771 623.449 122.508 622.422 124.129C622.187 124.557 621.631 124.365 621.246 124.416C619.038 124.369 616.831 124.45 614.623 124.45C613.926 124.48 613.459 123.877 612.946 123.505C616.065 116.732 619.149 109.938 621.965 103.033C622.17 102.502 622.392 101.916 622.204 101.347C621.905 100.355 621.019 99.7213 620.219 99.1395C618.676 98.087 617.144 97.0146 615.624 95.9222C616.33 94.4119 616.869 92.799 617.789 91.4C618.456 91.2716 618.858 91.9861 619.312 92.3455C619.249 91.3766 619.385 90.405 619.712 89.491C620.04 88.5769 620.552 87.7399 621.216 87.0318ZM628.489 106.083C628.001 107.397 627.509 108.71 627.056 110.036C626.979 110.383 626.743 110.892 627.133 111.123C628.334 111.6 629.575 111.97 630.842 112.227C631.172 111.97 631.629 111.82 631.847 111.457C631.968 109.727 631.959 107.991 631.822 106.263C631.762 105.959 631.8 105.493 631.394 105.407C630.728 105.144 630.018 105.008 629.302 105.005C628.844 105.125 628.699 105.69 628.51 106.083H628.489Z" fill="white" fill-opacity="0.3" style="fill:white;fill-opacity:0.3;"/>
<path d="M697.319 91.5063C698.299 91.0644 699.329 90.7441 700.386 90.5522C700.844 91.9427 700.789 93.4273 700.964 94.8648C701.12 95.8383 701.2 96.8224 701.204 97.8083C700.429 98.4329 699.492 98.8693 698.803 99.5795C697.584 100.662 696.771 102.087 695.899 103.43C694.649 103.002 693.49 102.318 692.202 101.98C691.911 102.835 691.642 103.789 691.992 104.671C692.32 105.513 692.91 106.228 693.674 106.712C694.606 106.057 695.274 105.12 696.13 104.388C696.784 104.448 697.332 104.88 697.931 105.12C699.586 105.946 701.456 106.04 703.249 106.348C703.099 107.717 702.971 109.09 702.752 110.451C702.722 110.853 702.277 110.926 701.987 111.084C700.143 111.811 698.282 112.509 696.45 113.266C696.647 113.796 696.845 114.326 697.045 114.853C701.127 114.986 705.204 115.238 709.285 115.123C709.807 115.722 710.95 116.274 710.543 117.215C709.987 118.888 709.26 120.501 708.592 122.135C708.502 122.452 708.271 122.772 708.361 123.11C709.247 123.722 710.244 124.154 711.095 124.822V124.976C710.903 125.429 710.723 125.981 710.192 126.127C708.053 126.888 705.914 127.568 703.813 128.347C703.052 128.64 702.255 128.828 701.443 128.908C701.264 126.918 701.525 124.929 701.61 122.939C697.64 122.978 693.695 123.491 689.729 123.658C689.301 123.658 688.672 123.658 688.608 123.123C687.787 120.454 687.286 117.698 686.559 114.994C685.126 109.599 683.945 104.14 682.708 98.6982C682.658 98.4419 682.636 98.1807 682.644 97.9195C683.555 97.158 684.702 96.7687 685.767 96.2852C689.618 94.6937 693.426 92.9994 697.319 91.5063Z" fill="white" fill-opacity="0.3" style="fill:white;fill-opacity:0.3;"/>
<path d="M655.135 106.011C657.95 103.833 660.649 101.506 663.447 99.3025C665.437 101.202 667.614 102.956 669.257 105.181C666.772 107.235 664.277 109.28 661.8 111.346C662.166 112.379 662.746 113.323 663.502 114.116C664.259 114.908 665.175 115.532 666.19 115.945C667.661 116.497 669.133 115.74 670.404 115.051C671.001 116.822 671.472 118.634 671.811 120.472C670.04 121.905 668.153 123.214 666.25 124.476C666.051 124.652 665.796 124.752 665.53 124.757C665.264 124.763 665.005 124.674 664.799 124.506C662.252 122.826 659.792 121.026 657.419 119.107C656.854 118.639 656.258 118.21 655.635 117.823C653.021 120.262 650.407 122.701 647.72 125.054C647.356 125.054 647.147 124.69 646.864 124.498C644.945 122.732 643.038 120.951 641.144 119.154C640.759 118.902 641.234 118.525 641.392 118.298C643.301 116.228 645.222 114.161 647.096 112.065C645.363 109.498 643.801 106.807 642.201 104.15C641.962 103.859 642.428 103.692 642.599 103.538C644.678 102.186 646.809 100.915 648.965 99.6875C651.044 101.788 652.987 104 655.135 106.011Z" fill="white" fill-opacity="0.3" style="fill:white;fill-opacity:0.3;"/>
<path d="M669.955 100.775C673.617 100.176 677.283 99.62 680.967 99.1708C681.395 102.076 681.369 105.028 681.604 107.95C681.85 112.773 682.125 117.596 682.43 122.419C682.473 122.847 682.477 123.476 681.865 123.309C679.162 122.881 676.453 122.453 673.784 121.855C673.245 121.782 673.198 121.153 673.116 120.729C672.774 118.496 672.192 116.306 671.867 114.072C671.76 113.469 672.196 112.977 672.419 112.459C673.623 110.233 673.929 107.631 673.275 105.186C672.363 105.092 671.439 105.143 670.536 104.985C670.167 103.612 669.971 102.197 669.955 100.775Z" fill="white" fill-opacity="0.3" style="fill:white;fill-opacity:0.3;"/>
<path d="M666.391 108.176C666.511 107.898 666.784 107.38 667.161 107.646C668.017 108.566 668.064 109.935 668.081 111.124C668.017 111.933 668.081 113.032 667.199 113.443C666.674 112.684 666.327 111.815 666.187 110.903C666.047 109.99 666.117 109.058 666.391 108.176Z" fill="white" fill-opacity="0.3" style="fill:white;fill-opacity:0.3;"/>
<path d="M660.837 127.789H662.296C662.934 128.739 663.533 129.719 664.166 130.673C664.166 129.71 664.166 128.743 664.234 127.781H665.736C665.736 129.539 665.766 131.297 665.783 133.06H664.281C663.708 132.234 663.126 131.422 662.544 130.6C662.544 131.422 662.523 132.247 662.515 133.073H660.73C660.786 131.306 660.807 129.548 660.837 127.789Z" fill="white" fill-opacity="0.3" style="fill:white;fill-opacity:0.3;"/>
<path d="M641.05 127.788H642.958C642.958 129.546 642.937 131.305 642.928 133.063H641.012C641.02 131.309 641.025 129.551 641.05 127.788Z" fill="white" fill-opacity="0.3" style="fill:white;fill-opacity:0.3;"/>
<path d="M644.759 127.789H646.248C646.873 128.752 647.476 129.727 648.105 130.681C648.105 129.719 648.126 128.748 648.139 127.781H649.658C649.684 129.539 649.658 131.297 649.701 133.056H648.229C647.652 132.252 647.108 131.421 646.475 130.664C646.449 131.46 646.445 132.26 646.441 133.06H644.674C644.708 131.306 644.729 129.548 644.759 127.789Z" fill="white" fill-opacity="0.3" style="fill:white;fill-opacity:0.3;"/>
<path d="M651.477 127.788H655.396C655.396 128.267 655.396 128.746 655.396 129.225C654.66 129.225 653.924 129.225 653.192 129.225C653.158 129.469 653.124 129.713 653.09 129.961L654.326 129.991L654.416 130.95H653.192C653.192 131.654 653.202 132.36 653.222 133.067H651.378C651.391 131.305 651.417 129.546 651.477 127.788Z" fill="white" fill-opacity="0.3" style="fill:white;fill-opacity:0.3;"/>
<path d="M657.115 127.843C657.736 127.778 658.361 127.761 658.985 127.792C658.985 129.55 658.985 131.309 658.959 133.067H657.038C657.081 131.326 656.978 129.58 657.115 127.843Z" fill="white" fill-opacity="0.3" style="fill:white;fill-opacity:0.3;"/>
<path d="M667.55 127.788H669.458C669.458 129.546 669.437 131.305 669.433 133.063H667.512C667.529 131.309 667.533 129.551 667.55 127.788Z" fill="white" fill-opacity="0.3" style="fill:white;fill-opacity:0.3;"/>
<path d="M671.251 127.77C672.902 127.77 674.554 127.77 676.205 127.77C676.235 128.39 676.244 129.015 676.205 129.64H674.55C674.55 130.782 674.55 131.924 674.55 133.062H672.616C672.679 131.921 672.734 130.781 672.783 129.64L671.242 129.661L671.251 127.77Z" fill="white" fill-opacity="0.3" style="fill:white;fill-opacity:0.3;"/>
<path d="M676.988 127.77H678.978C679.406 128.283 679.833 128.805 680.218 129.332C680.484 128.81 680.749 128.288 681.027 127.774C681.699 127.774 682.37 127.774 683.046 127.774C682.211 129.543 681.369 131.308 680.522 133.071H678.383C678.738 132.374 679.089 131.68 679.453 130.987C678.644 129.905 677.814 128.84 676.988 127.77Z" fill="white" fill-opacity="0.3" style="fill:white;fill-opacity:0.3;"/>
<path d="M856.491 90.5551H858.969V89.9544L858.331 89.3163H855.253L854.615 89.9544V94.9097L855.253 95.5104H858.331L858.969 94.9097V94.3091H856.491V93.0703H858.969V91.8314H856.491V90.5551Z" fill="white" fill-opacity="0.3" style="fill:white;fill-opacity:0.3;"/>
<path d="M858.556 83.7616H855.065V87.2528H858.556V83.7616Z" fill="white" fill-opacity="0.3" style="fill:white;fill-opacity:0.3;"/>
<path d="M851.761 89.3148V91.7924H849.922V89.3148H848.683L848.045 89.9529V94.9082L848.683 95.5088H849.922V93.0312H851.761V95.5088H853L853.601 94.9082V89.9154L853 89.2772H851.761V89.3148Z" fill="white" fill-opacity="0.3" style="fill:white;fill-opacity:0.3;"/>
<path d="M842.076 89.3163L841.438 89.9544V90.5551H843.277V94.8722L843.916 95.4728H844.516L845.117 94.8722V90.5551H846.956V89.9544L846.356 89.3163H842.076Z" fill="white" fill-opacity="0.3" style="fill:white;fill-opacity:0.3;"/>
<path d="M774.767 97.6146L772.29 100.092V110.003L774.767 112.48H784.678V117.436H779.722V114.958H772.29V119.913L774.767 122.391H789.595L792.073 119.913V110.003L789.595 107.525H779.722V102.57H784.678V105.048H792.111V100.092L789.633 97.6146H774.767Z" fill="white" fill-opacity="0.3" style="fill:white;fill-opacity:0.3;"/>
<path d="M841.551 97.6146V122.353H858.856L861.334 119.876V100.092L858.856 97.6146H841.551ZM848.983 102.57H853.939V117.398H848.983V102.57Z" fill="white" fill-opacity="0.3" style="fill:white;fill-opacity:0.3;"/>
<path d="M863.812 97.6165V122.355H881.117L883.595 119.878V112.445L881.117 109.967L883.595 107.49V100.057L881.117 97.579L863.812 97.6165ZM871.244 112.482H876.2V117.438H871.244V112.482ZM871.244 107.527V102.572H876.2V107.527H871.244Z" fill="white" fill-opacity="0.3" style="fill:white;fill-opacity:0.3;"/>
<path d="M888.55 97.6146L886.073 100.092V119.876L888.55 122.353H903.379L905.856 119.876V100.092L903.379 97.6146H888.55ZM893.506 102.57H898.461V117.398H893.506V102.57Z" fill="white" fill-opacity="0.3" style="fill:white;fill-opacity:0.3;"/>
<path d="M932.809 105.312L928.137 109.984L932.809 114.656L937.481 109.984L932.809 105.312Z" fill="white" fill-opacity="0.3" style="fill:white;fill-opacity:0.3;"/>
<path d="M804.156 123.727L799.484 128.399L804.156 133.071L808.828 128.399L804.156 123.727Z" fill="white" fill-opacity="0.3" style="fill:white;fill-opacity:0.3;"/>
<path d="M920.722 97.6146V105.048L918.244 107.525L915.767 105.048V97.6146H910.812L908.334 100.092V107.525L910.812 110.003L908.334 112.48V119.913L910.812 122.391H915.767V114.958L918.244 112.48L920.722 114.958V122.391H925.677L928.155 119.913V112.48L925.677 110.003L928.155 107.525V100.092L925.677 97.6146H920.722Z" fill="white" fill-opacity="0.3" style="fill:white;fill-opacity:0.3;"/>
<path d="M831.64 97.6146V105.048L824.207 97.6146H819.252L816.774 100.092V119.876L819.252 122.353H824.207V107.525L831.64 114.958V122.391H836.595L839.073 119.913V100.13L836.595 97.6522H831.64V97.6146Z" fill="white" fill-opacity="0.3" style="fill:white;fill-opacity:0.3;"/>
<path d="M811.857 97.6893H797.028L794.551 100.167V119.95L797.028 122.428H801.984V112.518H806.939V122.428H811.894L814.372 119.95V100.167L811.857 97.6893ZM804.461 108.463L801.308 105.31L804.461 102.157L807.615 105.31L804.461 108.463Z" fill="white" fill-opacity="0.3" style="fill:white;fill-opacity:0.3;"/>
<path d="M1058.58 84.8929C1059.1 84.4907 1059.56 83.849 1060.25 83.7592C1063.4 85.6031 1066.08 88.1316 1068.56 90.7842C1066.85 93.5565 1064.54 95.884 1062.21 98.1258C1061.76 98.498 1061.19 99.2039 1060.55 98.7804C1059.19 97.962 1057.9 97.0272 1056.7 95.9866C1055.17 94.6689 1053.54 93.4196 1052.36 91.7511C1054.07 89.1712 1056.33 87.0321 1058.58 84.8929ZM1061.96 89.5135C1060.8 90.6885 1059.56 91.77 1058.24 92.7479C1057.86 91.9273 1057.77 91.0059 1057.96 90.1253L1058.78 90.3777C1058.53 90.72 1058.02 90.9767 1058.08 91.4516C1058.57 91.6313 1058.8 90.9895 1059.15 90.7585L1059.72 91.0879L1060.07 90.5831C1059.22 89.9927 1058.32 89.3381 1057.26 89.1499C1057.04 90.5897 1057.13 92.0595 1057.52 93.4624C1057.61 93.8432 1058.09 93.5779 1058.29 93.4624C1059.81 92.3543 1060.97 90.8312 1062.53 89.7788C1062.91 90.6207 1062.99 91.5668 1062.76 92.4613C1062.27 92.2043 1061.79 91.9186 1061.34 91.6056C1061.07 91.3532 1060.86 91.7468 1060.67 91.8794C1061.51 92.5571 1062.47 93.0604 1063.51 93.3597C1063.75 91.8149 1063.64 90.2345 1063.18 88.7391C1062.73 88.9126 1062.31 89.1792 1061.96 89.5221V89.5135Z" fill="white" fill-opacity="0.3" style="fill:white;fill-opacity:0.3;"/>
<path d="M1006.95 87.0318C1007.74 86.39 1008.75 86.0948 1009.7 85.7483C1010.72 87.1858 1011.9 88.5121 1012.88 89.9881C1011.77 90.7112 1010.82 91.8449 1010.74 93.214C1010.73 93.5799 1010.83 93.9403 1011.01 94.2573C1011.19 94.5743 1011.46 94.8361 1011.78 95.0152C1013.51 96.1233 1015.59 96.4741 1017.56 96.9746C1020.38 97.6891 1023.29 98.087 1026.06 99.0154C1025.95 102.776 1025.71 106.532 1025.66 110.297C1025.43 114.948 1025.54 119.607 1025.32 124.253C1022.6 124.343 1019.87 124.527 1017.15 124.544C1016.67 123.004 1016.36 121.421 1015.94 119.864C1014.54 119.279 1013.09 118.793 1011.62 118.409C1011.28 118.448 1011.21 118.863 1011.03 119.085C1010.07 120.771 1009.18 122.508 1008.15 124.129C1007.92 124.557 1007.36 124.365 1006.98 124.416C1004.77 124.369 1002.56 124.45 1000.35 124.45C999.655 124.48 999.189 123.877 998.675 123.505C1001.79 116.732 1004.88 109.938 1007.69 103.033C1007.9 102.502 1008.12 101.916 1007.93 101.347C1007.63 100.355 1006.75 99.7213 1005.95 99.1395C1004.41 98.087 1002.87 97.0146 1001.35 95.9222C1002.06 94.4119 1002.6 92.799 1003.52 91.4C1004.19 91.2716 1004.59 91.9861 1005.04 92.3455C1004.98 91.3766 1005.11 90.405 1005.44 89.491C1005.77 88.5769 1006.28 87.7399 1006.95 87.0318ZM1014.22 106.083C1013.73 107.397 1013.24 108.71 1012.79 110.036C1012.71 110.383 1012.47 110.892 1012.86 111.123C1014.06 111.6 1015.3 111.97 1016.57 112.227C1016.9 111.97 1017.36 111.82 1017.58 111.457C1017.7 109.727 1017.69 107.991 1017.55 106.263C1017.49 105.959 1017.53 105.493 1017.12 105.407C1016.46 105.144 1015.75 105.008 1015.03 105.005C1014.57 105.125 1014.43 105.69 1014.24 106.083H1014.22Z" fill="white" fill-opacity="0.3" style="fill:white;fill-opacity:0.3;"/>
<path d="M1083.05 91.5063C1084.03 91.0644 1085.06 90.7441 1086.12 90.5522C1086.57 91.9427 1086.52 93.4273 1086.69 94.8648C1086.85 95.8383 1086.93 96.8224 1086.93 97.8083C1086.16 98.4329 1085.22 98.8693 1084.53 99.5795C1083.31 100.662 1082.5 102.087 1081.63 103.43C1080.38 103.002 1079.22 102.318 1077.93 101.98C1077.64 102.835 1077.37 103.789 1077.72 104.671C1078.05 105.513 1078.64 106.228 1079.4 106.712C1080.34 106.057 1081 105.12 1081.86 104.388C1082.51 104.448 1083.06 104.88 1083.66 105.12C1085.32 105.946 1087.19 106.04 1088.98 106.348C1088.83 107.717 1088.7 109.09 1088.48 110.451C1088.45 110.853 1088.01 110.926 1087.72 111.084C1085.87 111.811 1084.01 112.509 1082.18 113.266C1082.38 113.796 1082.57 114.326 1082.77 114.853C1086.86 114.986 1090.93 115.238 1095.01 115.123C1095.54 115.722 1096.68 116.274 1096.27 117.215C1095.72 118.888 1094.99 120.501 1094.32 122.135C1094.23 122.452 1094 122.772 1094.09 123.11C1094.98 123.722 1095.97 124.154 1096.82 124.822V124.976C1096.63 125.429 1096.45 125.981 1095.92 126.127C1093.78 126.888 1091.64 127.568 1089.54 128.347C1088.78 128.64 1087.98 128.828 1087.17 128.908C1086.99 126.918 1087.25 124.929 1087.34 122.939C1083.37 122.978 1079.42 123.491 1075.46 123.658C1075.03 123.658 1074.4 123.658 1074.34 123.123C1073.52 120.454 1073.02 117.698 1072.29 114.994C1070.86 109.599 1069.67 104.14 1068.44 98.6982C1068.39 98.4419 1068.37 98.1807 1068.37 97.9195C1069.28 97.158 1070.43 96.7687 1071.5 96.2852C1075.35 94.6937 1079.16 92.9994 1083.05 91.5063Z" fill="white" fill-opacity="0.3" style="fill:white;fill-opacity:0.3;"/>
<path d="M1040.86 106.011C1043.68 103.833 1046.38 101.506 1049.18 99.3025C1051.17 101.202 1053.34 102.956 1054.99 105.181C1052.5 107.235 1050.01 109.28 1047.53 111.346C1047.9 112.379 1048.48 113.323 1049.23 114.116C1049.99 114.908 1050.9 115.532 1051.92 115.945C1053.39 116.497 1054.86 115.74 1056.13 115.051C1056.73 116.822 1057.2 118.634 1057.54 120.472C1055.77 121.905 1053.88 123.214 1051.98 124.476C1051.78 124.652 1051.53 124.752 1051.26 124.757C1050.99 124.763 1050.73 124.674 1050.53 124.506C1047.98 122.826 1045.52 121.026 1043.15 119.107C1042.58 118.639 1041.99 118.21 1041.36 117.823C1038.75 120.262 1036.14 122.701 1033.45 125.054C1033.09 125.054 1032.88 124.69 1032.59 124.498C1030.67 122.732 1028.77 120.951 1026.87 119.154C1026.49 118.902 1026.96 118.525 1027.12 118.298C1029.03 116.228 1030.95 114.161 1032.83 112.065C1031.09 109.498 1029.53 106.807 1027.93 104.15C1027.69 103.859 1028.16 103.692 1028.33 103.538C1030.41 102.186 1032.54 100.915 1034.69 99.6875C1036.77 101.788 1038.72 104 1040.86 106.011Z" fill="white" fill-opacity="0.3" style="fill:white;fill-opacity:0.3;"/>
<path d="M1055.68 100.775C1059.35 100.176 1063.01 99.62 1066.7 99.1708C1067.12 102.076 1067.1 105.028 1067.33 107.95C1067.58 112.773 1067.85 117.596 1068.16 122.419C1068.2 122.847 1068.21 123.476 1067.59 123.309C1064.89 122.881 1062.18 122.453 1059.51 121.855C1058.97 121.782 1058.93 121.153 1058.85 120.729C1058.5 118.496 1057.92 116.306 1057.6 114.072C1057.49 113.469 1057.93 112.977 1058.15 112.459C1059.35 110.233 1059.66 107.631 1059 105.186C1058.09 105.092 1057.17 105.143 1056.27 104.985C1055.9 103.612 1055.7 102.197 1055.68 100.775Z" fill="white" fill-opacity="0.3" style="fill:white;fill-opacity:0.3;"/>
<path d="M1052.12 108.176C1052.24 107.898 1052.51 107.38 1052.89 107.646C1053.75 108.566 1053.79 109.935 1053.81 111.124C1053.75 111.933 1053.81 113.032 1052.93 113.443C1052.4 112.684 1052.06 111.815 1051.92 110.903C1051.78 109.99 1051.85 109.058 1052.12 108.176Z" fill="white" fill-opacity="0.3" style="fill:white;fill-opacity:0.3;"/>
<path d="M1046.57 127.789H1048.03C1048.66 128.739 1049.26 129.719 1049.9 130.673C1049.9 129.71 1049.9 128.743 1049.96 127.781H1051.47C1051.47 129.539 1051.5 131.297 1051.51 133.06H1050.01C1049.44 132.234 1048.86 131.422 1048.27 130.6C1048.27 131.422 1048.25 132.247 1048.24 133.073H1046.46C1046.52 131.306 1046.54 129.548 1046.57 127.789Z" fill="white" fill-opacity="0.3" style="fill:white;fill-opacity:0.3;"/>
<path d="M1026.78 127.788H1028.69C1028.69 129.546 1028.67 131.305 1028.66 133.063H1026.74C1026.75 131.309 1026.75 129.551 1026.78 127.788Z" fill="white" fill-opacity="0.3" style="fill:white;fill-opacity:0.3;"/>
<path d="M1030.49 127.789H1031.98C1032.6 128.752 1033.21 129.727 1033.83 130.681C1033.83 129.719 1033.86 128.748 1033.87 127.781H1035.39C1035.41 129.539 1035.39 131.297 1035.43 133.056H1033.96C1033.38 132.252 1032.84 131.421 1032.2 130.664C1032.18 131.46 1032.17 132.26 1032.17 133.06H1030.4C1030.44 131.306 1030.46 129.548 1030.49 127.789Z" fill="white" fill-opacity="0.3" style="fill:white;fill-opacity:0.3;"/>
<path d="M1037.21 127.788H1041.13C1041.13 128.267 1041.13 128.746 1041.13 129.225C1040.39 129.225 1039.65 129.225 1038.92 129.225C1038.89 129.469 1038.85 129.713 1038.82 129.961L1040.06 129.991L1040.15 130.95H1038.92C1038.92 131.654 1038.93 132.36 1038.95 133.067H1037.11C1037.12 131.305 1037.15 129.546 1037.21 127.788Z" fill="white" fill-opacity="0.3" style="fill:white;fill-opacity:0.3;"/>
<path d="M1042.84 127.843C1043.47 127.778 1044.09 127.761 1044.71 127.792C1044.71 129.55 1044.71 131.309 1044.69 133.067H1042.77C1042.81 131.326 1042.71 129.58 1042.84 127.843Z" fill="white" fill-opacity="0.3" style="fill:white;fill-opacity:0.3;"/>
<path d="M1053.28 127.788H1055.19C1055.19 129.546 1055.17 131.305 1055.16 133.063H1053.24C1053.26 131.309 1053.26 129.551 1053.28 127.788Z" fill="white" fill-opacity="0.3" style="fill:white;fill-opacity:0.3;"/>
<path d="M1056.98 127.77C1058.63 127.77 1060.28 127.77 1061.93 127.77C1061.96 128.39 1061.97 129.015 1061.93 129.64H1060.28C1060.28 130.782 1060.28 131.924 1060.28 133.062H1058.35C1058.41 131.921 1058.46 130.781 1058.51 129.64L1056.97 129.661L1056.98 127.77Z" fill="white" fill-opacity="0.3" style="fill:white;fill-opacity:0.3;"/>
<path d="M1062.72 127.77H1064.71C1065.14 128.283 1065.56 128.805 1065.95 129.332C1066.21 128.81 1066.48 128.288 1066.76 127.774C1067.43 127.774 1068.1 127.774 1068.78 127.774C1067.94 129.543 1067.1 131.308 1066.25 133.071H1064.11C1064.47 132.374 1064.82 131.68 1065.18 130.987C1064.37 129.905 1063.54 128.84 1062.72 127.77Z" fill="white" fill-opacity="0.3" style="fill:white;fill-opacity:0.3;"/>
</svg>
