<svg width="277" height="22" viewBox="0 0 277 22" fill="none" xmlns="http://www.w3.org/2000/svg">
<path d="M127.572 19.1755C127.572 18.0803 127.812 17.2845 128.291 16.7882C128.77 16.2748 129.532 16.0181 130.576 16.0181C132.013 16.0181 132.732 16.6513 132.732 17.9177C132.732 18.9958 132.484 19.7831 131.988 20.2794C131.508 20.7756 130.747 21.0238 129.703 21.0238C128.282 21.0238 127.572 20.4077 127.572 19.1755Z" fill="#DCFF3B" style="fill:#DCFF3B;fill:color(display-p3 0.8627 1.0000 0.2314);fill-opacity:1;"/>
<path d="M118.557 21.024C114.998 21.024 113.218 19.7919 113.218 17.3275C113.218 16.9852 113.252 16.6173 113.32 16.2237L113.86 13.0405C114.15 11.3976 114.903 10.1398 116.119 9.26699C117.351 8.37708 118.977 7.93213 120.996 7.93213C124.436 7.93213 126.156 9.23276 126.156 11.834C126.156 12.2105 126.121 12.6213 126.053 13.0662L125.745 14.8888H117.915L117.813 15.4792C117.779 15.6846 117.761 15.8728 117.761 16.044C117.761 16.9852 118.318 17.4559 119.43 17.4559C119.841 17.4559 120.192 17.3275 120.483 17.0708C120.773 16.8141 120.945 16.5146 120.996 16.1723L125.257 16.2237C124.692 19.4239 122.459 21.024 118.557 21.024ZM121.638 13.3229C121.706 13.032 121.74 12.7667 121.74 12.5271C121.74 12.2704 121.629 12.0137 121.407 11.757C121.184 11.5003 120.825 11.372 120.328 11.372C119.849 11.372 119.404 11.5345 118.994 11.8597C118.6 12.1849 118.326 12.6726 118.172 13.3229H121.638Z" fill="#18191A" style="fill:#18191A;fill:color(display-p3 0.0941 0.0980 0.1020);fill-opacity:1;"/>
<path d="M110.494 16.7098C110.494 17.1548 110.717 17.3772 111.162 17.3772C111.624 17.3772 112.009 17.2917 112.317 17.1205L112.188 20.0213C111.367 20.6887 110.443 21.0224 109.416 21.0224C107.534 21.0224 106.49 20.3379 106.284 18.9688C105.429 20.3379 104.171 21.0224 102.511 21.0224C99.7041 21.0224 98.3008 19.8159 98.3008 17.4029C98.3008 16.9922 98.3436 16.5387 98.4291 16.0424L98.9682 13.0389C99.242 11.4987 99.8667 10.2751 100.842 9.36806C101.835 8.44393 103.204 7.98186 104.949 7.98186C106.028 7.98186 106.883 8.21289 107.516 8.67496L108.826 1.1792H113.215L110.52 16.4018C110.503 16.5044 110.494 16.6071 110.494 16.7098ZM102.896 15.4776C102.862 15.6316 102.844 15.8456 102.844 16.1194C102.844 16.3932 102.973 16.667 103.23 16.9408C103.486 17.1975 103.914 17.3259 104.513 17.3259C105.129 17.3259 105.66 17.0863 106.105 16.6071L106.875 12.2945C106.686 11.8666 106.241 11.6527 105.54 11.6527C104.222 11.6527 103.452 12.2859 103.23 13.5523L102.896 15.4776Z" fill="#18191A" style="fill:#18191A;fill:color(display-p3 0.0941 0.0980 0.1020);fill-opacity:1;"/>
<path d="M96.8509 17.3775C97.2445 17.3775 97.5953 17.2919 97.9034 17.1208L97.775 20.0216C96.9707 20.689 96.0551 21.0227 95.0283 21.0227C93.4709 21.0227 92.4612 20.6633 91.9992 19.9446C91.6911 19.4654 91.5371 18.9605 91.5371 18.43C91.5371 17.8824 91.5713 17.4032 91.6398 16.9925L93.18 8.31586H97.544L96.1064 16.402C96.0893 16.5047 96.0808 16.5988 96.0808 16.6844C96.0808 17.1465 96.3375 17.3775 96.8509 17.3775ZM93.6934 4.13158C93.6934 3.03631 93.933 2.24053 94.4122 1.74423C94.9085 1.23082 95.67 0.974121 96.6969 0.974121C98.1344 0.974121 98.8532 1.60732 98.8532 2.87373C98.8532 3.95189 98.605 4.73911 98.1087 5.23541C97.6295 5.7317 96.868 5.97985 95.8241 5.97985C94.4036 5.97985 93.6934 5.36376 93.6934 4.13158Z" fill="#18191A" style="fill:#18191A;fill:color(display-p3 0.0941 0.0980 0.1020);fill-opacity:1;"/>
<path d="M91.2083 10.9869C91.2083 11.5517 91.0371 12.0736 90.6949 12.5528H86.4849C86.6218 12.4501 86.6903 12.279 86.6903 12.0394C86.6903 11.7998 86.5534 11.6116 86.2795 11.4746C86.0057 11.3206 85.6549 11.2436 85.2271 11.2436C83.9435 11.2436 83.3018 11.6372 83.3018 12.4245C83.3018 12.7325 83.5414 12.955 84.0205 13.0919C84.4997 13.2288 85.0816 13.34 85.7661 13.4256C86.4507 13.5112 87.1352 13.6395 87.8198 13.8107C88.5043 13.9647 89.0862 14.2813 89.5654 14.7605C90.0445 15.2396 90.2841 15.8814 90.2841 16.6857C90.2841 18.1062 89.7108 19.1843 88.5642 19.9202C87.4347 20.6561 85.7833 21.024 83.6098 21.024C81.4364 21.024 79.9133 20.6732 79.0405 19.9716C78.3559 19.4239 78.0137 18.6709 78.0137 17.7126C78.0137 17.4387 78.0393 17.1564 78.0907 16.8654L82.3776 16.8141C82.3434 17.0537 82.4803 17.2676 82.7884 17.4559C83.1135 17.627 83.5842 17.7126 84.2002 17.7126C84.8163 17.7126 85.2613 17.6527 85.5351 17.5329C85.8089 17.396 85.9458 17.1478 85.9458 16.7884C85.9458 16.5488 85.7062 16.3862 85.2271 16.3007C84.7479 16.198 84.1575 16.1124 83.4558 16.044C82.7713 15.9755 82.0782 15.8643 81.3765 15.7103C80.692 15.5562 80.1101 15.2311 79.6309 14.7348C79.1517 14.2385 78.9121 13.5882 78.9121 12.7838C78.9121 11.2265 79.5111 10.0285 80.7091 9.18998C81.9241 8.35141 83.6697 7.93213 85.9458 7.93213C89.4541 7.93213 91.2083 8.95039 91.2083 10.9869Z" fill="#18191A" style="fill:#18191A;fill:color(display-p3 0.0941 0.0980 0.1020);fill-opacity:1;"/>
<path d="M72.3235 12.7816C72.3235 12.0457 71.9641 11.6778 71.2453 11.6778C70.5437 11.6778 69.9618 11.943 69.4998 12.4736L68.0622 20.6624H63.6982L65.8802 8.31495H69.9362L69.6538 9.82951C70.6635 8.58021 71.9384 7.95557 73.4787 7.95557C75.0189 7.95557 76.02 8.33207 76.4821 9.08506C76.773 9.56425 76.9185 10.1119 76.9185 10.728C76.9185 11.3441 76.8757 11.9174 76.7902 12.4479L76.0971 16.4011C76.0799 16.5038 76.0714 16.5979 76.0714 16.6835C76.0714 17.1456 76.3281 17.3766 76.8415 17.3766C77.2351 17.3766 77.5859 17.291 77.894 17.1199L77.7656 20.0207C76.9613 20.6881 76.0457 21.0218 75.0189 21.0218C72.6914 21.0218 71.5277 20.0463 71.5277 18.0954C71.5277 17.7531 71.5619 17.3852 71.6304 16.9916L72.2465 13.5774C72.2978 13.2693 72.3235 13.0041 72.3235 12.7816Z" fill="#18191A" style="fill:#18191A;fill:color(display-p3 0.0941 0.0980 0.1020);fill-opacity:1;"/>
<path d="M62.4534 17.3775C62.847 17.3775 63.1979 17.2919 63.5059 17.1208L63.3776 20.0216C62.5732 20.689 61.6576 21.0227 60.6308 21.0227C59.0735 21.0227 58.0638 20.6633 57.6017 19.9446C57.2937 19.4654 57.1396 18.9605 57.1396 18.43C57.1396 17.8824 57.1739 17.4032 57.2423 16.9925L58.7826 8.31586H63.1465L61.709 16.402C61.6919 16.5047 61.6833 16.5988 61.6833 16.6844C61.6833 17.1465 61.94 17.3775 62.4534 17.3775ZM59.296 4.13158C59.296 3.03631 59.5356 2.24053 60.0147 1.74423C60.511 1.23082 61.2726 0.974121 62.2994 0.974121C63.7369 0.974121 64.4557 1.60732 64.4557 2.87373C64.4557 3.95189 64.2076 4.73911 63.7113 5.23541C63.2321 5.7317 62.4705 5.97985 61.4266 5.97985C60.0062 5.97985 59.296 5.36376 59.296 4.13158Z" fill="#18191A" style="fill:#18191A;fill:color(display-p3 0.0941 0.0980 0.1020);fill-opacity:1;"/>
<path d="M56.8108 10.9869C56.8108 11.5517 56.6397 12.0736 56.2974 12.5528H52.0874C52.2244 12.4501 52.2928 12.279 52.2928 12.0394C52.2928 11.7998 52.1559 11.6116 51.8821 11.4746C51.6083 11.3206 51.2574 11.2436 50.8296 11.2436C49.5461 11.2436 48.9043 11.6372 48.9043 12.4245C48.9043 12.7325 49.1439 12.955 49.6231 13.0919C50.1023 13.2288 50.6841 13.34 51.3687 13.4256C52.0532 13.5112 52.7378 13.6395 53.4223 13.8107C54.1069 13.9647 54.6887 14.2813 55.1679 14.7605C55.6471 15.2396 55.8867 15.8814 55.8867 16.6857C55.8867 18.1062 55.3134 19.1843 54.1667 19.9202C53.0373 20.6561 51.3858 21.024 49.2124 21.024C47.0389 21.024 45.5158 20.6732 44.643 19.9716C43.9585 19.4239 43.6162 18.6709 43.6162 17.7126C43.6162 17.4387 43.6419 17.1564 43.6932 16.8654L47.9802 16.8141C47.946 17.0537 48.0829 17.2676 48.3909 17.4559C48.7161 17.627 49.1867 17.7126 49.8028 17.7126C50.4189 17.7126 50.8638 17.6527 51.1376 17.5329C51.4115 17.396 51.5484 17.1478 51.5484 16.7884C51.5484 16.5488 51.3088 16.3862 50.8296 16.3007C50.3504 16.198 49.76 16.1124 49.0583 16.044C48.3738 15.9755 47.6807 15.8643 46.979 15.7103C46.2945 15.5562 45.7126 15.2311 45.2334 14.7348C44.7543 14.2385 44.5147 13.5882 44.5147 12.7838C44.5147 11.2265 45.1137 10.0285 46.3116 9.18998C47.5267 8.35141 49.2723 7.93213 51.5484 7.93213C55.0567 7.93213 56.8108 8.95039 56.8108 10.9869Z" fill="#18191A" style="fill:#18191A;fill:color(display-p3 0.0941 0.0980 0.1020);fill-opacity:1;"/>
<path d="M43.2016 8.31885C43.4411 9.03762 43.5609 9.99598 43.5609 11.1939C43.5609 12.3748 43.4155 13.5128 43.1245 14.6081C42.8336 15.7034 42.3887 16.7473 41.7897 17.7399C41.2078 18.7154 40.3864 19.5111 39.3253 20.1272C38.2814 20.7262 37.0749 21.0257 35.7058 21.0257C33.5666 21.0257 32.0863 20.5893 31.2648 19.7165C30.7172 19.1346 30.4434 18.2447 30.4434 17.0468C30.4434 16.482 30.5118 15.8403 30.6487 15.1215L31.8552 8.31885H36.2192L35.0127 15.1472C34.9614 15.4039 34.9357 15.6349 34.9357 15.8403C34.9357 16.8158 35.4405 17.3035 36.4502 17.3035C38.23 17.3035 39.12 15.4381 39.12 11.7073C39.12 10.8345 39.0515 9.86763 38.9146 8.80659L38.8376 8.31885H43.2016Z" fill="#18191A" style="fill:#18191A;fill:color(display-p3 0.0941 0.0980 0.1020);fill-opacity:1;"/>
<path d="M22.235 21.024C18.6753 21.024 16.8955 19.7919 16.8955 17.3275C16.8955 16.9852 16.9297 16.6173 16.9982 16.2237L17.5373 13.0405C17.8282 11.3976 18.5812 10.1398 19.7963 9.26699C21.0284 8.37708 22.6542 7.93213 24.6736 7.93213C28.1135 7.93213 29.8334 9.23276 29.8334 11.834C29.8334 12.2105 29.7992 12.6213 29.7307 13.0662L29.4227 14.8888H21.5932L21.4905 15.4792C21.4563 15.6846 21.4392 15.8728 21.4392 16.044C21.4392 16.9852 21.9954 17.4559 23.1077 17.4559C23.5185 17.4559 23.8693 17.3275 24.1602 17.0708C24.4512 16.8141 24.6223 16.5146 24.6736 16.1723L28.9349 16.2237C28.3702 19.4239 26.1369 21.024 22.235 21.024ZM25.3154 13.3229C25.3839 13.032 25.4181 12.7667 25.4181 12.5271C25.4181 12.2704 25.3068 12.0137 25.0844 11.757C24.8619 11.5003 24.5025 11.372 24.0062 11.372C23.527 11.372 23.0821 11.5345 22.6714 11.8597C22.2777 12.1849 22.0039 12.6726 21.8499 13.3229H25.3154Z" fill="#18191A" style="fill:#18191A;fill:color(display-p3 0.0941 0.0980 0.1020);fill-opacity:1;"/>
<path d="M11.275 2.18408C13.5169 2.18408 15.117 2.74883 16.0754 3.87833C16.777 4.73401 17.1279 5.80361 17.1279 7.08713C17.1279 7.5492 17.0851 8.03693 16.9995 8.55034L15.9984 14.2748C15.6561 16.2087 14.8175 17.7575 13.4827 18.9212C12.1478 20.0849 10.4193 20.6668 8.29724 20.6668H0.827148L4.08729 2.18408H11.275ZM9.65777 6.18867H7.98919L6.16659 16.6622H8.60528C9.40962 16.6622 10.0343 16.4483 10.4792 16.0204C10.9413 15.5755 11.2579 14.8567 11.429 13.8641L12.1735 9.65417C12.2419 9.27767 12.2762 8.9354 12.2762 8.62735C12.2762 7.00156 11.4034 6.18867 9.65777 6.18867Z" fill="#18191A" style="fill:#18191A;fill:color(display-p3 0.0941 0.0980 0.1020);fill-opacity:1;"/>
<rect x="143.982" y="1.08643" width="1.16436" height="19.8271" fill="#A3A3A3" style="fill:#A3A3A3;fill:color(display-p3 0.6392 0.6392 0.6392);fill-opacity:1;"/>
<mask id="mask0_62_110" style="mask-type:luminance" maskUnits="userSpaceOnUse" x="156" y="0" width="121" height="22">
<path d="M156.396 0.974121H276.756V21.0256H156.396V0.974121Z" fill="white" style="fill:white;fill-opacity:1;"/>
</mask>
<g mask="url(#mask0_62_110)">
<path d="M168.73 20.4694L173.674 19.2407C173.674 19.2407 171.545 4.85035 171.532 4.75162C171.518 4.65291 171.432 4.59813 171.36 4.59217C171.289 4.5862 169.897 4.56505 169.897 4.56505C169.897 4.56505 169.049 3.74109 168.73 3.4292V20.4694Z" fill="#444444" style="fill:#444444;fill:color(display-p3 0.2667 0.2667 0.2667);fill-opacity:1;"/>
<path d="M168.192 3.26436C168.191 3.2649 167.973 3.33217 167.607 3.44553C167.546 3.24699 167.456 3.0029 167.327 2.75773C166.913 1.96688 166.306 1.54868 165.573 1.54759C165.572 1.54759 165.571 1.54759 165.57 1.54759C165.519 1.54759 165.469 1.55247 165.418 1.55682C165.396 1.53078 165.374 1.50529 165.351 1.48033C165.032 1.13861 164.622 0.972083 164.131 0.986728C163.184 1.01385 162.241 1.69784 161.476 2.91286C160.938 3.76772 160.529 4.8417 160.413 5.67325C159.325 6.01009 158.565 6.24547 158.548 6.25092C157.999 6.42341 157.982 6.4402 157.91 6.95769C157.856 7.34876 156.42 18.4554 156.42 18.4554L168.336 20.516V3.23994C168.278 3.24374 168.225 3.25458 168.192 3.26436ZM165.44 4.1165C164.81 4.31177 164.121 4.52494 163.431 4.73864C163.625 3.99498 163.993 3.25458 164.446 2.76912C164.614 2.5885 164.849 2.38726 165.128 2.27226C165.39 2.81902 165.447 3.59306 165.44 4.1165ZM164.15 1.61702C164.372 1.61214 164.559 1.66096 164.719 1.76619C164.463 1.89908 164.216 2.09001 163.984 2.33898C163.382 2.98446 162.921 3.98632 162.737 4.9529C162.164 5.13029 161.603 5.30439 161.087 5.46387C161.413 3.94237 162.688 1.65933 164.15 1.61702ZM162.307 10.2844C162.371 11.2982 165.038 11.5194 165.188 13.8941C165.306 15.7622 164.197 17.0402 162.6 17.1411C160.682 17.2621 159.627 16.1306 159.627 16.1306L160.033 14.4019C160.033 14.4019 161.096 15.2036 161.946 15.1499C162.502 15.1146 162.7 14.6628 162.68 14.3433C162.596 13.0209 160.425 13.099 160.287 10.9261C160.172 9.09753 161.373 7.24465 164.023 7.07754C165.043 7.01303 165.566 7.27395 165.566 7.27395L164.96 9.54069C164.96 9.54069 164.285 9.23315 163.483 9.28362C162.308 9.35788 162.295 10.0988 162.307 10.2844ZM166.07 3.92177C166.063 3.44227 166.006 2.77509 165.783 2.19849C166.501 2.33464 166.855 3.14773 167.005 3.63267C166.728 3.71782 166.412 3.81545 166.07 3.92177Z" fill="#444444" style="fill:#444444;fill:color(display-p3 0.2667 0.2667 0.2667);fill-opacity:1;"/>
<path d="M227.793 20.5991L229.463 11.6982C229.672 10.5815 229.828 9.59055 229.933 8.82401H230.647L230.386 10.5134H230.421C231.17 9.3814 232.216 8.6499 233.33 8.6499C234.916 8.6499 235.507 10.0083 235.507 11.3673C235.507 14.1892 233.574 17.3573 230.909 17.3573C230.09 17.3573 229.55 17.166 229.237 16.9918H229.202L228.542 20.5961L227.793 20.5991ZM229.361 16.2269C229.744 16.5228 230.302 16.6969 230.981 16.6969C233.193 16.6969 234.726 13.5618 234.726 11.4175C234.726 10.4246 234.343 9.32707 233.106 9.32707C231.922 9.32707 230.371 10.8251 229.901 13.3511L229.361 16.2269Z" fill="#444444" style="fill:#444444;fill:color(display-p3 0.2667 0.2667 0.2667);fill-opacity:1;"/>
<path d="M241.273 17.1852C241.255 16.6802 241.36 15.8964 241.482 14.9385H241.448C240.49 16.7847 239.428 17.3594 238.33 17.3594C237.061 17.3594 236.292 16.3142 236.292 14.8161C236.292 11.9769 238.33 8.6499 241.571 8.6499C242.164 8.6499 242.826 8.75447 243.261 8.89357L242.372 13.4054C242.076 14.9557 241.972 16.2989 242.007 17.1852H241.273ZM242.39 9.45094C242.198 9.3814 241.902 9.32913 241.379 9.32913C238.976 9.32913 237.095 12.012 237.077 14.642C237.059 15.7223 237.373 16.6974 238.505 16.6974C239.864 16.6974 241.399 14.6598 241.798 12.4993L242.39 9.45094Z" fill="#444444" style="fill:#444444;fill:color(display-p3 0.2667 0.2667 0.2667);fill-opacity:1;"/>
<path d="M243.972 17.1852L245.035 11.5587C245.244 10.4962 245.366 9.55552 245.436 8.82401H246.132C246.063 9.36415 245.993 9.92153 245.888 10.6358H245.924C246.446 9.51898 247.265 8.6499 248.309 8.6499C248.415 8.6509 248.52 8.66248 248.623 8.68442L248.484 9.46871C248.387 9.44618 248.287 9.43444 248.188 9.43369C247.09 9.43369 245.871 11.0886 245.522 12.9363L244.738 17.1868L243.972 17.1852Z" fill="#444444" style="fill:#444444;fill:color(display-p3 0.2667 0.2667 0.2667);fill-opacity:1;"/>
<path d="M251.794 6.97412L251.429 8.82089H253.397L253.258 9.46557H251.289L250.366 14.4475C250.262 15.0059 250.192 15.4404 250.192 15.8932C250.192 16.3811 250.418 16.677 250.941 16.677C251.22 16.677 251.394 16.6598 251.55 16.6075L251.601 17.2166C251.335 17.2962 251.059 17.3373 250.782 17.3385C249.789 17.3385 249.406 16.6785 249.406 15.98C249.406 15.5267 249.457 15.0912 249.598 14.447L250.538 9.46507H249.336L249.458 8.82039H250.676L250.955 7.32236L251.794 6.97412Z" fill="#444444" style="fill:#444444;fill:color(display-p3 0.2667 0.2667 0.2667);fill-opacity:1;"/>
<path d="M253.205 17.1852L254.322 11.28C254.491 10.4683 254.619 9.64863 254.705 8.82401H255.402L255.174 10.5312H255.209C255.94 9.31288 256.985 8.6499 258.117 8.6499C258.936 8.6499 259.982 9.17224 259.982 10.7576C259.982 11.1754 259.912 11.5937 259.825 12.0465L258.867 17.1852H258.117L259.093 12.0465C259.171 11.6449 259.211 11.2371 259.215 10.8282C259.215 9.95706 258.867 9.33013 257.839 9.33013C256.722 9.33013 255.156 10.7236 254.793 12.7445L253.974 17.1863L253.205 17.1852Z" fill="#444444" style="fill:#444444;fill:color(display-p3 0.2667 0.2667 0.2667);fill-opacity:1;"/>
<path d="M266.113 16.7152C265.677 16.9939 264.876 17.3421 263.831 17.3421C261.88 17.3421 261.201 15.809 261.201 14.2065C261.201 11.8028 262.873 8.6499 265.277 8.6499C266.653 8.6499 267.228 9.55553 267.228 10.4774C267.228 12.6023 264.791 13.1947 262.054 13.1775C261.967 13.5607 261.952 14.6583 262.124 15.2502C262.42 16.2086 263.065 16.6614 263.951 16.6614C264.874 16.6614 265.502 16.3304 265.885 16.103L266.113 16.7152ZM265.137 9.32912C263.848 9.32912 262.681 10.7226 262.176 12.517C264.354 12.5343 266.444 12.1683 266.444 10.5134C266.444 9.72963 265.921 9.32912 265.137 9.32912Z" fill="#444444" style="fill:#444444;fill:color(display-p3 0.2667 0.2667 0.2667);fill-opacity:1;"/>
<path d="M267.646 17.1852L268.708 11.5587C268.918 10.4962 269.039 9.55552 269.109 8.82401H269.806C269.736 9.36415 269.666 9.92153 269.562 10.6358H269.597C270.119 9.51898 270.938 8.6499 271.983 8.6499C272.088 8.6509 272.193 8.66248 272.296 8.68442L272.157 9.46871C272.06 9.44618 271.96 9.43444 271.861 9.43369C270.763 9.43369 269.544 11.0886 269.196 12.9363L268.412 17.1868L267.646 17.1852Z" fill="#444444" style="fill:#444444;fill:color(display-p3 0.2667 0.2667 0.2667);fill-opacity:1;"/>
<path d="M271.949 16.2111C272.389 16.5 272.903 16.657 273.429 16.6639C274.527 16.6639 275.257 15.8801 275.257 14.9379C275.257 14.1014 274.909 13.5963 274.125 13.0912C273.306 12.5511 272.853 11.8023 272.853 11.0358C272.853 9.72913 273.898 8.6499 275.361 8.6499C275.936 8.6499 276.511 8.84128 276.755 9.03316L276.476 9.67836C276.214 9.52151 275.761 9.33013 275.274 9.33013C274.264 9.33013 273.602 10.0271 273.602 10.8977C273.602 11.682 274.037 12.116 274.734 12.5729C275.535 13.113 276.023 13.879 276.023 14.7156C276.023 16.405 274.786 17.3457 273.358 17.3457C272.609 17.3457 271.947 17.067 271.668 16.8406L271.949 16.2111Z" fill="#444444" style="fill:#444444;fill:color(display-p3 0.2667 0.2667 0.2667);fill-opacity:1;"/>
<path d="M180.742 12.1096C180.138 11.7817 179.829 11.5051 179.829 11.1248C179.829 10.6411 180.261 10.3304 180.935 10.3304C181.72 10.3304 182.421 10.6583 182.421 10.6583L182.969 8.96535C182.969 8.96535 182.462 8.56787 180.965 8.56787C178.884 8.56787 177.44 9.7598 177.44 11.436C177.44 12.3863 178.114 13.1112 179.014 13.63C179.739 14.0447 179.999 14.3407 179.999 14.7707C179.999 15.2199 179.636 15.5829 178.962 15.5829C177.958 15.5829 177.01 15.0646 177.01 15.0646L176.421 16.7575C176.421 16.7575 177.297 17.3449 178.771 17.3449C180.913 17.3449 182.451 16.291 182.451 14.3904C182.453 13.3711 181.675 12.6452 180.742 12.1096Z" fill="#444444" style="fill:#444444;fill:color(display-p3 0.2667 0.2667 0.2667);fill-opacity:1;"/>
<path d="M189.278 8.55006C188.224 8.55006 187.394 9.0511 186.755 9.81103L186.72 9.79428L187.634 5.0083H185.254L182.938 17.1915H185.324L186.119 13.0289C186.43 11.4553 187.242 10.4908 188.002 10.4908C188.538 10.4908 188.745 10.8537 188.745 11.372C188.745 11.7258 188.71 12.0788 188.641 12.4258L187.741 17.191H190.127L191.06 12.267C191.163 11.7545 191.221 11.2341 191.233 10.7116C191.23 9.36229 190.521 8.55006 189.278 8.55006Z" fill="#444444" style="fill:#444444;fill:color(display-p3 0.2667 0.2667 0.2667);fill-opacity:1;"/>
<path d="M196.62 8.55322C193.752 8.55322 191.853 11.1467 191.853 14.0321C191.853 15.8809 192.993 17.3668 195.136 17.3668C197.952 17.3668 199.852 14.8443 199.852 11.8899C199.851 10.1777 198.849 8.55322 196.62 8.55322ZM195.446 15.5332C194.634 15.5332 194.288 14.8423 194.288 13.9783C194.288 12.6133 194.998 10.3848 196.292 10.3848C197.139 10.3848 197.415 11.1102 197.415 11.8188C197.415 13.2895 196.707 15.5352 195.446 15.5352V15.5332Z" fill="#444444" style="fill:#444444;fill:color(display-p3 0.2667 0.2667 0.2667);fill-opacity:1;"/>
<path d="M205.95 8.55322C204.34 8.55322 203.427 9.9746 203.427 9.9746H203.392L203.53 8.69589H201.423C201.322 9.55885 201.13 10.8731 200.94 11.8579L199.281 20.5801H201.667L202.323 17.0556H202.374C202.374 17.0556 202.864 17.3668 203.774 17.3668C206.573 17.3668 208.404 14.4986 208.404 11.596C208.402 9.98932 207.695 8.55322 205.95 8.55322ZM203.67 15.5698C203.311 15.575 202.962 15.4527 202.685 15.2245L203.082 12.9955C203.359 11.5097 204.136 10.5249 204.965 10.5249C205.691 10.5249 205.916 11.1985 205.916 11.8381C205.914 13.3758 205 15.5698 203.67 15.5698Z" fill="#444444" style="fill:#444444;fill:color(display-p3 0.2667 0.2667 0.2667);fill-opacity:1;"/>
<path d="M211.807 5.13428C211.627 5.13374 211.448 5.16924 211.281 5.23871C211.114 5.30821 210.962 5.41029 210.835 5.53901C210.708 5.6677 210.608 5.82046 210.54 5.9883C210.473 6.15616 210.44 6.33576 210.443 6.51659C210.443 7.22728 210.892 7.70851 211.566 7.70851H211.6C212.344 7.70851 212.983 7.20747 213 6.32621C213 5.63532 212.533 5.13428 211.807 5.13428Z" fill="#444444" style="fill:#444444;fill:color(display-p3 0.2667 0.2667 0.2667);fill-opacity:1;"/>
<path d="M208.473 17.1956H210.857L212.481 8.74658H210.08L208.473 17.1956Z" fill="#444444" style="fill:#444444;fill:color(display-p3 0.2667 0.2667 0.2667);fill-opacity:1;"/>
<path d="M218.546 8.72622H216.887L216.974 8.32927C217.112 7.51705 217.595 6.79114 218.39 6.79114C218.649 6.79155 218.906 6.83249 219.152 6.91245L219.617 5.04893C219.617 5.04893 219.202 4.84131 218.321 4.84131C217.475 4.84131 216.628 5.08345 215.989 5.63626C215.176 6.32715 214.796 7.32922 214.606 8.3318L214.537 8.72878H213.432L213.086 10.5258H214.192L212.93 17.1951H215.316L216.575 10.5233H218.216L218.546 8.72622Z" fill="#444444" style="fill:#444444;fill:color(display-p3 0.2667 0.2667 0.2667);fill-opacity:1;"/>
<path d="M224.282 8.74658C224.282 8.74658 222.792 12.5031 222.122 14.5519H222.088C222.042 13.892 221.5 8.74658 221.5 8.74658H218.995L220.429 16.5042C220.464 16.6768 220.447 16.7809 220.379 16.9017C220.102 17.4373 219.635 17.9556 219.082 18.3358C218.633 18.6642 218.132 18.8713 217.735 19.0094L218.392 21.0313C218.876 20.9298 219.877 20.5298 220.727 19.7353C221.815 18.716 222.817 17.1433 223.854 15.0011L226.774 8.74658H224.282Z" fill="#444444" style="fill:#444444;fill:color(display-p3 0.2667 0.2667 0.2667);fill-opacity:1;"/>
</g>
</svg>
