<svg width="21" height="21" viewBox="0 0 21 21" fill="none" xmlns="http://www.w3.org/2000/svg">
<g clip-path="url(#clip0_62_203)">
<path d="M4.94052 5.8125H0.728516V20.5485H4.94052V5.8125Z" fill="#181818" style="fill:#181818;fill:color(display-p3 0.0941 0.0941 0.0941);fill-opacity:1;"/>
<path d="M14.9365 5.8125C12.0005 5.8125 11.4925 6.8845 11.2525 7.9165V5.8125H7.04443V20.5485H11.2525V12.1285C11.2525 10.7645 11.9925 10.0245 13.3565 10.0245C14.7205 10.0245 15.4605 10.7485 15.4605 12.1285V20.5485H19.6725V13.1805C19.6725 8.96854 19.1245 5.8125 14.9365 5.8125Z" fill="#181818" style="fill:#181818;fill:color(display-p3 0.0941 0.0941 0.0941);fill-opacity:1;"/>
<path d="M2.83252 4.75488C3.99452 4.75488 4.93652 3.81288 4.93652 2.65088C4.93652 1.48887 3.99452 0.546875 2.83252 0.546875C1.67051 0.546875 0.728516 1.48887 0.728516 2.65088C0.728516 3.81288 1.67051 4.75488 2.83252 4.75488Z" fill="#181818" style="fill:#181818;fill:color(display-p3 0.0941 0.0941 0.0941);fill-opacity:1;"/>
</g>
<defs>
<clipPath id="clip0_62_203">
<rect x="0.200684" y="0.546875" width="20" height="20" fill="white" style="fill:white;fill-opacity:1;"/>
</clipPath>
</defs>
</svg>
