<svg width="249" height="71" viewBox="0 0 249 71" fill="none" xmlns="http://www.w3.org/2000/svg">
<path d="M0.733887 0.132812H231.239C240.628 0.132812 248.239 7.74397 248.239 17.1328V70.357H0.733887V0.132812Z" fill="#DCFF3B" style="fill:#DCFF3B;fill:color(display-p3 0.8627 1.0000 0.2314);fill-opacity:1;"/>
<path d="M225.743 21.3029L233.809 13.2356L235.134 14.5608L227.069 22.6272L234.177 22.6272L234.177 24.5016L223.868 24.5016L223.868 14.1925L225.743 14.1925L225.743 21.3029Z" fill="#2E2E2E" style="fill:#2E2E2E;fill:color(display-p3 0.1804 0.1804 0.1804);fill-opacity:1;"/>
<path d="M30.781 24.4827L34.4698 12.944H37.0339L31.7931 28.4414H29.7913L27.1822 19.152L24.5955 28.4414H22.5937L17.3529 12.944H19.917L23.6058 24.4827L26.26 15.0583H28.1269L30.781 24.4827ZM47.8436 23.1556C47.8436 23.4031 47.8436 23.7629 47.8211 24.0104H39.4763C39.7237 25.6298 40.9833 26.642 42.6928 26.642C43.8624 26.642 45.0095 26.1022 45.5493 25.135L47.4387 25.9672C46.539 27.8341 44.5371 28.6663 42.5803 28.6663C39.6113 28.6663 37.1821 26.4845 37.1821 23.1556C37.1821 19.8267 39.6113 17.7124 42.5803 17.7124C45.5493 17.7124 47.8436 19.8267 47.8436 23.1556ZM39.4763 22.3234H45.5718C45.3244 20.6815 44.1773 19.7368 42.5803 19.7368C40.9608 19.7368 39.7237 20.7039 39.4763 22.3234ZM64.1876 28.4414V26.9344C63.4678 28.0815 62.0058 28.6663 60.6563 28.6663C57.8447 28.6663 55.3255 26.5295 55.3255 23.1781C55.3255 19.8267 57.8447 17.7124 60.6563 17.7124C61.9159 17.7124 63.4678 18.2298 64.1876 19.4219V17.9374H66.4819V28.4414H64.1876ZM57.7097 23.1556C57.7097 25.09 59.1942 26.4171 60.9262 26.4171C62.6356 26.4171 64.1651 25.225 64.1651 23.1556C64.1651 21.1088 62.5007 19.9617 60.9262 19.9617C59.1942 19.9617 57.7097 21.2213 57.7097 23.1556ZM72.0454 24.6626V28.4414H69.7287V17.9374H72.0454V20.3441C72.5853 18.4547 73.5974 17.7124 74.9245 17.7124C75.6668 17.7124 76.454 17.8699 76.7914 18.1173L76.409 20.2541C75.8017 19.9617 75.3069 19.8942 74.857 19.8942C72.8777 19.8942 72.0454 21.8736 72.0454 24.6626ZM88.4796 23.1556C88.4796 23.4031 88.4796 23.7629 88.4571 24.0104H80.1124C80.3598 25.6298 81.6194 26.642 83.3288 26.642C84.4984 26.642 85.6456 26.1022 86.1854 25.135L88.0748 25.9672C87.1751 27.8341 85.1732 28.6663 83.2164 28.6663C80.2473 28.6663 77.8181 26.4845 77.8181 23.1556C77.8181 19.8267 80.2473 17.7124 83.2164 17.7124C86.1854 17.7124 88.4796 19.8267 88.4796 23.1556ZM80.1124 22.3234H86.2079C85.9605 20.6815 84.8133 19.7368 83.2164 19.7368C81.5969 19.7368 80.3598 20.7039 80.1124 22.3234ZM104.824 28.4414V26.9344C104.104 28.0815 102.642 28.6663 101.292 28.6663C98.4808 28.6663 95.9616 26.5295 95.9616 23.1781C95.9616 19.8267 98.4808 17.7124 101.292 17.7124C102.552 17.7124 104.104 18.2298 104.824 19.4219V17.9374H107.118V28.4414H104.824ZM98.3458 23.1556C98.3458 25.09 99.8303 26.4171 101.562 26.4171C103.272 26.4171 104.801 25.225 104.801 23.1556C104.801 21.1088 103.137 19.9617 101.562 19.9617C99.8303 19.9617 98.3458 21.2213 98.3458 23.1556ZM21.514 41.1708V52.2371H25.1578C28.1943 52.2371 29.7463 49.8079 29.7463 46.7264C29.7463 43.6674 28.1943 41.1708 25.1578 41.1708H21.514ZM25.1578 54.4414H19.1298V38.944H25.1578C29.5664 38.944 32.1305 42.3179 32.1305 46.7264C32.1305 51.135 29.5664 54.4414 25.1578 54.4414ZM37.054 43.9374V54.4414H34.7597V43.9374H37.054ZM34.3548 39.6862C34.3548 38.854 35.0746 38.2242 35.9068 38.2242C36.784 38.2242 37.4363 38.854 37.4363 39.6862C37.4363 40.5185 36.784 41.1483 35.9068 41.1483C35.0746 41.1483 34.3548 40.5185 34.3548 39.6862ZM48.4598 49.2006C48.4598 47.1088 46.9528 45.9617 45.2209 45.9617C43.4665 45.9617 42.0269 47.2888 42.0269 49.2006C42.0269 51.18 43.4665 52.4396 45.2209 52.4396C46.7954 52.4396 48.4598 51.2699 48.4598 49.2006ZM42.0494 55.7685C42.6117 56.8706 43.8488 57.5229 44.996 57.5229C47.1328 57.5229 48.5048 56.3308 48.5048 53.3843V52.8444C47.92 54.0365 46.368 54.6663 44.951 54.6663C42.1169 54.6663 39.6427 52.552 39.6427 49.2231C39.6427 45.8942 42.1169 43.7124 44.951 43.7124C46.3905 43.7124 47.8525 44.3422 48.5048 45.4893V43.9374H50.7766V52.8894C50.7766 57.7253 48.5273 59.6822 44.996 59.6822C42.9491 59.6822 41.1272 58.625 40.1376 56.7357C40.5649 56.5557 41.6221 55.9484 42.0494 55.7685ZM56.3177 43.9374V54.4414H54.0234V43.9374H56.3177ZM53.6185 39.6862C53.6185 38.854 54.3383 38.2242 55.1705 38.2242C56.0477 38.2242 56.7 38.854 56.7 39.6862C56.7 40.5185 56.0477 41.1483 55.1705 41.1483C54.3383 41.1483 53.6185 40.5185 53.6185 39.6862ZM62.7077 39.9562V43.9374H64.9344V45.8492H62.7077V54.4414H60.3909V45.8492H58.5015V43.9374H60.3909V39.9562H62.7077ZM75.1484 54.4414V52.9344C74.4286 54.0815 72.9666 54.6663 71.617 54.6663C68.8055 54.6663 66.2863 52.5295 66.2863 49.1781C66.2863 45.8267 68.8055 43.7124 71.617 43.7124C72.8766 43.7124 74.4286 44.2298 75.1484 45.4219V43.9374H77.4426V54.4414H75.1484ZM68.6705 49.1556C68.6705 51.09 70.155 52.4171 71.8869 52.4171C73.5964 52.4171 75.1259 51.225 75.1259 49.1556C75.1259 47.1088 73.4614 45.9617 71.8869 45.9617C70.155 45.9617 68.6705 47.2213 68.6705 49.1556ZM80.6895 54.4414V38.2242H83.0062V54.4414H80.6895ZM100.145 54.4414V52.9344C99.4253 54.0815 97.9633 54.6663 96.6137 54.6663C93.8021 54.6663 91.283 52.5295 91.283 49.1781C91.283 45.8267 93.8021 43.7124 96.6137 43.7124C97.8733 43.7124 99.4253 44.2298 100.145 45.4219V43.9374H102.439V54.4414H100.145ZM93.6672 49.1556C93.6672 51.09 95.1517 52.4171 96.8836 52.4171C98.5931 52.4171 100.123 51.225 100.123 49.1556C100.123 47.1088 98.4581 45.9617 96.8836 45.9617C95.1517 45.9617 93.6672 47.2213 93.6672 49.1556ZM113.851 49.2006C113.851 47.1088 112.344 45.9617 110.612 45.9617C108.858 45.9617 107.418 47.2888 107.418 49.2006C107.418 51.18 108.858 52.4396 110.612 52.4396C112.187 52.4396 113.851 51.2699 113.851 49.2006ZM107.441 55.7685C108.003 56.8706 109.24 57.5229 110.387 57.5229C112.524 57.5229 113.896 56.3308 113.896 53.3843V52.8444C113.311 54.0365 111.759 54.6663 110.342 54.6663C107.508 54.6663 105.034 52.552 105.034 49.2231C105.034 45.8942 107.508 43.7124 110.342 43.7124C111.782 43.7124 113.244 44.3422 113.896 45.4893V43.9374H116.168V52.8894C116.168 57.7253 113.918 59.6822 110.387 59.6822C108.34 59.6822 106.518 58.625 105.529 56.7357C105.956 56.5557 107.013 55.9484 107.441 55.7685ZM129.401 49.1556C129.401 49.4031 129.401 49.7629 129.379 50.0104H121.034C121.281 51.6298 122.541 52.642 124.25 52.642C125.42 52.642 126.567 52.1022 127.107 51.135L128.996 51.9672C128.097 53.8341 126.095 54.6663 124.138 54.6663C121.169 54.6663 118.74 52.4845 118.74 49.1556C118.74 45.8267 121.169 43.7124 124.138 43.7124C127.107 43.7124 129.401 45.8267 129.401 49.1556ZM121.034 48.3234H127.13C126.882 46.6815 125.735 45.7368 124.138 45.7368C122.519 45.7368 121.281 46.7039 121.034 48.3234ZM134.164 48.7958V54.4414H131.847V43.9374H134.164V45.5118C134.771 44.3197 136.233 43.7124 137.38 43.7124C139.922 43.7124 141.384 45.3319 141.384 48.3234V54.4414H139.067V48.5933C139.067 46.9064 138.212 45.9842 136.863 45.9842C135.491 45.9842 134.164 46.7264 134.164 48.7958ZM143.846 49.1556C143.846 45.8267 146.433 43.7124 149.447 43.7124C151.134 43.7124 152.618 44.3647 153.608 45.5343L151.809 46.9739C151.246 46.3216 150.369 45.9617 149.447 45.9617C147.693 45.9617 146.141 47.1988 146.141 49.1556C146.141 51.1125 147.693 52.4396 149.447 52.4396C150.369 52.4396 151.246 52.0572 151.809 51.4049L153.631 52.8219C152.641 53.9916 151.156 54.6663 149.447 54.6663C146.433 54.6663 143.846 52.4845 143.846 49.1556ZM165.479 43.9374L158.979 59.5697H156.549L158.821 53.9466L154.66 43.9374H157.134L160.058 51.135L163.005 43.9374H165.479Z" fill="#181818" style="fill:#181818;fill:color(display-p3 0.0941 0.0941 0.0941);fill-opacity:1;"/>
</svg>
