<svg width="21" height="21" viewBox="0 0 21 21" fill="none" xmlns="http://www.w3.org/2000/svg">
<g clip-path="url(#clip0_62_196)">
<mask id="mask0_62_196" style="mask-type:luminance" maskUnits="userSpaceOnUse" x="0" y="0" width="21" height="21">
<path d="M20.2007 0.546875H0.200684V20.5469H20.2007V0.546875Z" fill="white" style="fill:white;fill-opacity:1;"/>
</mask>
<g mask="url(#mask0_62_196)">
<path d="M6.48868 18.6727C14.0367 18.6727 18.1647 12.4207 18.1647 6.99671C18.1647 6.82071 18.1647 6.64071 18.1647 6.46471C18.9634 5.88403 19.6528 5.16624 20.2007 4.34471C19.4519 4.6759 18.6578 4.89298 17.8447 4.98871C18.7011 4.4764 19.3422 3.6704 19.6487 2.72071C18.8424 3.19891 17.9604 3.53576 17.0407 3.71671C16.4216 3.05966 15.6034 2.62482 14.7124 2.47942C13.8214 2.33402 12.9074 2.48615 12.1115 2.9123C11.3157 3.33845 10.6824 4.01487 10.3095 4.83702C9.93668 5.65916 9.84502 6.58125 10.0487 7.46071C8.41734 7.37881 6.82146 6.95473 5.36466 6.216C3.90786 5.47726 2.62273 4.44039 1.59268 3.17271C1.06898 4.07617 0.908999 5.14517 1.14528 6.16237C1.38156 7.17956 1.99636 8.0686 2.86468 8.64871C2.21226 8.63382 1.57298 8.46234 1.00068 8.14871V8.20071C1.00042 9.14841 1.32815 10.067 1.92823 10.8005C2.52829 11.534 3.36373 12.0372 4.29268 12.2247C3.68896 12.3899 3.05541 12.4145 2.44068 12.2967C2.70308 13.1115 3.21343 13.824 3.90046 14.3346C4.58748 14.8452 5.41685 15.1284 6.27268 15.1447C4.81973 16.2867 3.02475 16.9067 1.17668 16.9047C0.850223 16.8998 0.52433 16.8757 0.200684 16.8327C2.07633 18.0375 4.25943 18.6763 6.48868 18.6727Z" fill="#181818" style="fill:#181818;fill:color(display-p3 0.0941 0.0941 0.0941);fill-opacity:1;"/>
</g>
</g>
<defs>
<clipPath id="clip0_62_196">
<rect x="0.200684" y="0.546875" width="20" height="20" fill="white" style="fill:white;fill-opacity:1;"/>
</clipPath>
</defs>
</svg>
