<svg width="78" height="28" viewBox="0 0 78 28" fill="none" xmlns="http://www.w3.org/2000/svg">
<rect x="0.827148" y="0.046875" width="76.3735" height="27" rx="13.5" fill="#181818" style="fill:#181818;fill:color(display-p3 0.0941 0.0941 0.0941);fill-opacity:1;"/>
<path fill-rule="evenodd" clip-rule="evenodd" d="M14.8553 4.38159C9.58007 4.38159 5.30127 8.58848 5.30127 13.775C5.30127 17.9243 8.05611 21.4397 11.8074 22.7075C12.2763 22.7651 12.4521 22.477 12.4521 22.2464C12.4521 22.016 12.4521 21.4397 12.4521 20.6328C9.81452 21.2091 9.22839 19.3651 9.22839 19.3651C8.81808 18.2701 8.17334 17.9819 8.17334 17.9819C7.29413 17.4057 8.23195 17.4057 8.23195 17.4057C9.16977 17.4633 9.6973 18.3853 9.6973 18.3853C10.5765 19.8261 11.9246 19.4226 12.4521 19.1921C12.5108 18.5582 12.8038 18.1548 13.0383 17.9243C10.9282 17.6938 8.70086 16.8869 8.70086 13.2564C8.70086 12.2191 9.05254 11.4123 9.6973 10.7207C9.63868 10.5478 9.287 9.56817 9.81452 8.30033C9.81452 8.30033 10.6351 8.06982 12.4521 9.28002C13.2141 9.04951 14.0347 8.99188 14.8553 8.99188C15.6759 8.99188 16.4965 9.10714 17.2585 9.28002C19.0755 8.06982 19.8961 8.30033 19.8961 8.30033C20.4236 9.56817 20.0719 10.5478 20.0133 10.7784C20.5994 11.4123 21.0097 12.2767 21.0097 13.3141C21.0097 16.9446 18.7824 17.6938 16.6723 17.9243C17.024 18.2124 17.317 18.7888 17.317 19.6532C17.317 20.921 17.317 21.9007 17.317 22.2464C17.317 22.477 17.4929 22.7651 17.9618 22.7075C21.7717 21.4397 24.4679 17.9243 24.4679 13.775C24.4093 8.58848 20.1305 4.38159 14.8553 4.38159Z" fill="#DCFF3B" style="fill:#DCFF3B;fill:color(display-p3 0.8627 1.0000 0.2314);fill-opacity:1;"/>
<path d="M36.6806 10.3178L35.8766 11.0618C35.3486 10.5938 34.6526 10.2938 33.8846 10.2938C32.1566 10.2938 30.8246 11.7218 30.8246 13.4738C30.8246 15.2378 32.1566 16.6418 33.8846 16.6418C35.3606 16.6418 36.4646 15.7898 36.5246 14.4098H34.1726V13.4378H37.7966C37.7966 16.3538 36.2486 17.7098 33.8846 17.7098C31.5326 17.7098 29.7086 15.8258 29.7086 13.4738C29.7086 11.1338 31.5326 9.22584 33.8846 9.22584C34.9886 9.22584 35.9606 9.64584 36.6806 10.3178ZM40.1829 11.9858V17.5898H39.1029V11.9858H40.1829ZM38.8869 9.92184C38.8869 9.50184 39.2229 9.21384 39.6429 9.21384C40.0629 9.21384 40.3989 9.50184 40.3989 9.92184C40.3989 10.3418 40.0629 10.6298 39.6429 10.6298C39.2229 10.6298 38.8869 10.3418 38.8869 9.92184ZM43.5212 11.9858H44.7092V12.9098H43.5212V17.5898H42.4292V12.9098H41.4212V11.9858H42.4292V9.87384H43.5212V11.9858ZM47.0387 14.5658V17.5898H45.9467V8.93784H47.0387V12.8258C47.3627 12.1538 48.2867 11.8658 48.8867 11.8658C50.2907 11.8658 51.1667 12.7658 51.1547 14.3498V17.5898H50.0627V14.4218C50.0627 13.4978 49.5107 12.9338 48.7427 12.9338C47.9747 12.9338 47.0387 13.3658 47.0387 14.5658ZM56.7356 15.0098V11.9858H57.8276V17.5898H56.7356V16.7498C56.3876 17.4218 55.6076 17.7098 54.9956 17.7098C53.5916 17.7098 52.8236 16.8098 52.8356 15.2258V11.9858H53.9276V15.1538C53.9276 16.1018 54.3836 16.6418 55.1516 16.6418C55.9436 16.6418 56.7356 16.2098 56.7356 15.0098ZM60.7379 16.7258V17.5898H59.6459V8.93784H60.7379V12.8258C61.1099 12.1898 61.8899 11.8658 62.7059 11.8658C64.2539 11.8658 65.5379 12.9938 65.5379 14.7818C65.5379 16.5578 64.2299 17.7098 62.6939 17.7098C61.9139 17.7098 61.1099 17.3498 60.7379 16.7258ZM60.7499 14.7698C60.7499 15.9578 61.6139 16.6418 62.6099 16.6418C63.6179 16.6418 64.4219 15.8738 64.4219 14.7698C64.4219 13.6658 63.6179 12.9338 62.6099 12.9338C61.6979 12.9338 60.7499 13.5698 60.7499 14.7698Z" fill="white" style="fill:white;fill-opacity:1;"/>
</svg>
