<svg width="21" height="21" viewBox="0 0 21 21" fill="none" xmlns="http://www.w3.org/2000/svg">
<g clip-path="url(#clip0_62_215)">
<path d="M10.198 7.21212C8.36179 7.21212 6.86331 8.71063 6.86331 10.5469C6.86331 12.3831 8.36179 13.8816 10.198 13.8816C12.0342 13.8816 13.5327 12.3831 13.5327 10.5469C13.5327 8.71063 12.0342 7.21212 10.198 7.21212ZM20.1996 10.5469C20.1996 9.16596 20.2121 7.79752 20.1345 6.41908C20.0569 4.81801 19.6918 3.39704 18.5209 2.22625C17.3477 1.05296 15.9293 0.690215 14.3282 0.612663C12.9473 0.535111 11.5789 0.547619 10.2005 0.547619C8.8196 0.547619 7.45119 0.535111 6.07278 0.612663C4.47173 0.690215 3.0508 1.05546 1.88003 2.22625C0.706759 3.39955 0.344021 4.81801 0.26647 6.41908C0.188919 7.80002 0.201428 9.16846 0.201428 10.5469C0.201428 11.9253 0.188919 13.2962 0.26647 14.6746C0.344021 16.2757 0.709261 17.6967 1.88003 18.8675C3.0533 20.0408 4.47173 20.4035 6.07278 20.4811C7.45369 20.5586 8.8221 20.5461 10.2005 20.5461C11.5814 20.5461 12.9498 20.5586 14.3282 20.4811C15.9293 20.4035 17.3502 20.0383 18.5209 18.8675C19.6943 17.6942 20.0569 16.2757 20.1345 14.6746C20.2146 13.2962 20.1996 11.9278 20.1996 10.5469ZM10.198 15.6779C7.35863 15.6779 5.06713 13.3863 5.06713 10.5469C5.06713 7.70746 7.35863 5.41591 10.198 5.41591C13.0374 5.41591 15.3288 7.70746 15.3288 10.5469C15.3288 13.3863 13.0374 15.6779 10.198 15.6779ZM15.539 6.40407C14.8761 6.40407 14.3407 5.86872 14.3407 5.20577C14.3407 4.54282 14.8761 4.00746 15.539 4.00746C16.2019 4.00746 16.7373 4.54282 16.7373 5.20577C16.7375 5.36318 16.7066 5.5191 16.6465 5.66457C16.5864 5.81005 16.4981 5.94222 16.3868 6.05354C16.2754 6.16485 16.1433 6.25311 15.9978 6.31327C15.8524 6.37342 15.6964 6.40427 15.539 6.40407Z" fill="#181818" style="fill:#181818;fill:color(display-p3 0.0941 0.0941 0.0941);fill-opacity:1;"/>
</g>
<defs>
<clipPath id="clip0_62_215">
<rect x="0.200684" y="0.546875" width="20" height="20" fill="white" style="fill:white;fill-opacity:1;"/>
</clipPath>
</defs>
</svg>
