<svg width="22" height="17" viewBox="0 0 22 17" fill="none" xmlns="http://www.w3.org/2000/svg">
<g clip-path="url(#clip0_62_193)">
<path d="M17.9897 1.88688C16.6303 1.26088 15.1768 0.805927 13.6572 0.546875C13.4706 0.87897 13.2526 1.32564 13.1023 1.68097C11.4869 1.44187 9.88635 1.44187 8.30069 1.68097C8.1504 1.32564 7.92742 0.87897 7.73912 0.546875C6.21789 0.805927 4.76272 1.26255 3.40335 1.89018C0.661496 5.96824 -0.0817763 9.94499 0.289861 13.8653C2.1084 15.2019 3.87079 16.0139 5.60343 16.5453C6.03123 15.9658 6.41277 15.3497 6.74146 14.7005C6.11546 14.4664 5.51589 14.1775 4.94937 13.8421C5.09966 13.7325 5.24668 13.6179 5.38871 13.5C8.8441 15.0907 12.5985 15.0907 16.0126 13.5C16.1563 13.6179 16.3033 13.7325 16.4519 13.8421C15.8837 14.1791 15.2825 14.468 14.6565 14.7022C14.9852 15.3497 15.3651 15.9674 15.7946 16.5469C17.5289 16.0156 19.2929 15.2036 21.1114 13.8653C21.5475 9.32066 20.3665 5.38042 17.9897 1.88688ZM7.21221 11.4544C6.17494 11.4544 5.32429 10.5012 5.32429 9.34058C5.32429 8.17992 6.15677 7.22518 7.21221 7.22518C8.26767 7.22518 9.11829 8.17826 9.10013 9.34058C9.10177 10.5012 8.26767 11.4544 7.21221 11.4544ZM14.1891 11.4544C13.1518 11.4544 12.3012 10.5012 12.3012 9.34058C12.3012 8.17992 13.1336 7.22518 14.1891 7.22518C15.2445 7.22518 16.0952 8.17826 16.077 9.34058C16.077 10.5012 15.2445 11.4544 14.1891 11.4544Z" fill="#181818" style="fill:#181818;fill:color(display-p3 0.0941 0.0941 0.0941);fill-opacity:1;"/>
</g>
<defs>
<clipPath id="clip0_62_193">
<rect x="0.200684" y="0.546875" width="21" height="16" fill="white" style="fill:white;fill-opacity:1;"/>
</clipPath>
</defs>
</svg>
